<?xml version="1.0" encoding="utf-8"?>
<!-- Generator: Adobe Illustrator 27.5.0, SVG Export Plug-In . SVG Version: 6.00 Build 0)  -->
<svg version="1.1" xmlns="http://www.w3.org/2000/svg" xmlns:xlink="http://www.w3.org/1999/xlink" x="0px" y="0px"
	 viewBox="0 0 750 500" style="enable-background:new 0 0 750 500;" xml:space="preserve">
<g id="BACKGROUND">
	<rect style="fill:#9EAEFF;" width="750" height="500"/>
</g>
<g id="OBJECTS">
	<g>
		<polygon style="fill:#6A80F2;" points="413.932,395.936 360.949,395.936 343.934,429.46 396.917,429.46 		"/>
		<g>
			<circle style="fill:#C4CDFF;" cx="494.596" cy="206.044" r="58.773"/>
			<path style="fill:#C4CDFF;" d="M94.965,308.423v68.886h68.886C163.851,339.265,133.01,308.423,94.965,308.423z"/>
			<rect x="248.062" y="177.199" style="fill:#C4CDFF;" width="138.908" height="133.635"/>
			<path style="fill:#6A80F2;" d="M213.677,376.732h31.288c-5.753-7.196-9.201-16.315-9.201-26.244
				c0-23.235,18.836-42.071,42.071-42.071c23.236,0,42.072,18.836,42.072,42.071c0,9.929-3.448,19.048-9.201,26.244h31.288
				c1.566-3.806,2.809-7.779,3.676-11.894h27.832v-28.7H345.67c-1.789-8.499-5.156-16.405-9.746-23.445l19.705-19.704
				l-20.294-20.294l-19.705,19.705c-7.04-4.59-14.946-7.956-23.445-9.745v-27.832h-28.7v27.832
				c-8.499,1.789-16.405,5.155-23.445,9.745l-19.704-19.705l-20.294,20.294l19.705,19.705c-4.59,7.04-7.956,14.946-9.745,23.445
				h-27.832v28.7h27.832C210.868,368.953,212.111,372.925,213.677,376.732z"/>
			<path style="fill:#6A80F2;" d="M532.216,376.732h16.323c-3.001-3.754-4.8-8.512-4.8-13.692c0-12.122,9.827-21.949,21.949-21.949
				c12.122,0,21.949,9.827,21.949,21.949c0,5.18-1.799,9.938-4.8,13.692h16.323c0.817-1.986,1.466-4.058,1.918-6.205h14.52v-14.973
				h-14.52c-0.933-4.434-2.69-8.559-5.084-12.231l10.28-10.28l-10.587-10.587l-10.28,10.28c-3.673-2.395-7.797-4.151-12.231-5.084
				v-14.52h-14.973v14.52c-4.434,0.934-8.559,2.69-12.231,5.084l-10.28-10.28l-10.587,10.587l10.28,10.28
				c-2.395,3.673-4.151,7.797-5.084,12.231h-14.52v14.973h14.52C530.751,372.673,531.399,374.746,532.216,376.732z"/>
		</g>
		<g>
			<rect x="554.871" y="278.304" style="fill:#FFE100;" width="86.204" height="59.098"/>
			<g>
				<polyline style="fill:none;stroke:#4862E0;stroke-width:1.0748;stroke-miterlimit:10;" points="637.579,282.161 
					597.973,323.178 558.367,282.161 				"/>
				
					<line style="fill:none;stroke:#4862E0;stroke-width:1.0748;stroke-miterlimit:10;" x1="583.309" y1="307.853" x2="558.367" y2="333.683"/>
				
					<line style="fill:none;stroke:#4862E0;stroke-width:1.0748;stroke-miterlimit:10;" x1="637.579" y1="333.683" x2="612.637" y2="307.853"/>
			</g>
		</g>
		<g>
			<circle style="fill:none;stroke:#6A80F2;stroke-width:2;stroke-miterlimit:10;" cx="109.279" cy="339.46" r="6.103"/>
			<path style="fill:none;stroke:#6A80F2;stroke-width:2.0434;stroke-miterlimit:10;" d="M643.415,359.922
				c0,3.444-2.792,6.235-6.236,6.235s-6.235-2.792-6.235-6.235c0-3.444,2.792-6.235,6.235-6.235S643.415,356.478,643.415,359.922z"
				/>
			<path style="fill:none;stroke:#6A80F2;stroke-width:2.0434;stroke-miterlimit:10;" d="M456.887,209.839
				c4.021,0,4.021,2.043,8.042,2.043c4.021,0,4.021-2.043,8.042-2.043c4.022,0,4.022,2.043,8.044,2.043
				c4.023,0,4.023-2.043,8.047-2.043c4.022,0,4.022,2.043,8.045,2.043c4.025,0,4.025-2.043,8.05-2.043
				c4.025,0,4.025,2.043,8.05,2.043"/>
			<path style="fill:none;stroke:#6A80F2;stroke-width:2.0434;stroke-miterlimit:10;" d="M195.664,157.279
				c4.021,0,4.021,2.043,8.042,2.043c4.021,0,4.021-2.043,8.042-2.043c4.022,0,4.022,2.043,8.044,2.043
				c4.023,0,4.023-2.043,8.047-2.043c4.022,0,4.022,2.043,8.044,2.043c4.025,0,4.025-2.043,8.05-2.043
				c4.025,0,4.025,2.043,8.05,2.043"/>
			<path style="fill:none;stroke:#6A80F2;stroke-width:2.0434;stroke-miterlimit:10;" d="M104.054,314.755
				c4.021,0,4.021,2.043,8.042,2.043c4.021,0,4.021-2.043,8.042-2.043c4.022,0,4.022,2.043,8.044,2.043
				c4.024,0,4.024-2.043,8.047-2.043c4.022,0,4.022,2.043,8.044,2.043c4.025,0,4.025-2.043,8.05-2.043
				c4.025,0,4.025,2.043,8.05,2.043"/>
			<g>
				
					<line style="fill:none;stroke:#6A80F2;stroke-width:2.0434;stroke-miterlimit:10;" x1="661.958" y1="136.835" x2="637.91" y2="167.632"/>
				<g>
					<circle style="fill:none;stroke:#6A80F2;stroke-width:2.0434;stroke-miterlimit:10;" cx="643.662" cy="142.454" r="3.449"/>
					<path style="fill:none;stroke:#6A80F2;stroke-width:2.0434;stroke-miterlimit:10;" d="M659.656,162.014
						c0,1.905-1.544,3.449-3.449,3.449s-3.45-1.544-3.45-3.449c0-1.905,1.544-3.45,3.45-3.45S659.656,160.109,659.656,162.014z"/>
				</g>
			</g>
			<g>
				
					<line style="fill:none;stroke:#6A80F2;stroke-width:2.0434;stroke-miterlimit:10;" x1="237.191" y1="174.615" x2="237.191" y2="187.067"/>
				
					<line style="fill:none;stroke:#6A80F2;stroke-width:2.0434;stroke-miterlimit:10;" x1="243.417" y1="180.841" x2="230.965" y2="180.841"/>
			</g>
			<g>
				
					<line style="fill:none;stroke:#6A80F2;stroke-width:2.0434;stroke-miterlimit:10;" x1="383.262" y1="101.974" x2="383.262" y2="114.426"/>
				
					<line style="fill:none;stroke:#6A80F2;stroke-width:2.0434;stroke-miterlimit:10;" x1="389.487" y1="108.2" x2="377.036" y2="108.2"/>
			</g>
			<g>
				
					<line style="fill:none;stroke:#6A80F2;stroke-width:2.0434;stroke-miterlimit:10;" x1="657.935" y1="281.207" x2="657.935" y2="293.659"/>
				
					<line style="fill:none;stroke:#6A80F2;stroke-width:2.0434;stroke-miterlimit:10;" x1="664.161" y1="287.433" x2="651.709" y2="287.433"/>
			</g>
		</g>
		<g>
			<g>
				<path style="fill:#6A80F2;" d="M513.463,199.167h-80.997c-2.658,0-4.813-2.155-4.813-4.813l0,0c0-2.658,2.155-4.813,4.813-4.813
					h80.997c2.658,0,4.813,2.155,4.813,4.813l0,0C518.276,197.013,516.121,199.167,513.463,199.167z"/>
			</g>
			
				<ellipse transform="matrix(0.229 -0.9734 0.9734 0.229 193.405 632.8889)" style="fill:#6A80F2;" cx="496.224" cy="194.354" rx="7.806" ry="7.806"/>
		</g>
		
			<line style="fill:none;stroke:#262F57;stroke-width:1.3436;stroke-miterlimit:10;" x1="62.654" y1="377.306" x2="687.346" y2="377.306"/>
		<polygon style="fill:#FFE100;" points="412.677,393.973 359.694,393.973 342.678,427.496 395.661,427.496 		"/>
		<path style="opacity:0.3;" d="M360.653,423.248c0,0,6.01-2.309,8.887-3.701c5.555,0.287,14.504,2.395,23.439-4.885
			c12.192,0.575,52.612,2.155,52.612,2.155s0.575,1.833,3.065,2.138c2.49,0.305,22.796,0,22.796,0v-2.138
			c0,0,30.499-3.338,41.111-12.516c10.612-9.178,0-0.941,0-0.941H392.979l-27.249,9.38L360.653,423.248z"/>
		<g>
			<path style="fill:#FFE100;" d="M132.737,343.799c13.643-12.493,34.83-11.56,47.323,2.083c7.909,8.637,10.43,20.297,7.758,30.861
				l21.645,12.223l-27.002-0.777c-1.299,1.784-2.793,3.467-4.484,5.015c-13.643,12.492-34.83,11.56-47.323-2.083
				C118.162,377.478,119.094,356.291,132.737,343.799z"/>
			<path style="fill:#4862E0;" d="M152.368,360.56l-2.598,1.754c-0.82,0.554-1.271,1.535-1.091,2.508
				c0.486,2.642,1.896,5.588,4.144,8.249c2.248,2.662,4.916,4.546,7.439,5.468c0.929,0.34,1.972,0.06,2.655-0.656l2.164-2.267
				l7.441,8.813c-5.9,4.981-16.889,1.703-24.497-7.308c-7.608-9.011-8.997-20.393-3.097-25.375L152.368,360.56z"/>
		</g>
		<g>
			<ellipse style="fill:#354FCC;" cx="428.247" cy="146.415" rx="2.538" ry="1.483"/>
			<path style="fill:#262F57;" d="M432.375,146.415h-8.256c-0.43,0-0.778-0.348-0.778-0.778v-3.641h9.812v3.641
				C433.153,146.066,432.805,146.415,432.375,146.415z"/>
			<path style="fill:#FFE100;" d="M442.134,120.769c0-8.192-7.093-14.727-15.472-13.799c-6.577,0.728-11.8,6.192-12.267,12.793
				c-0.282,3.993,1.13,7.65,3.586,10.341c1.908,2.091,3.299,4.599,3.793,7.386l0.477,2.697c0.22,1.242,1.3,2.148,2.561,2.148h6.869
				c1.262,0,2.341-0.906,2.561-2.148l0.433-2.447c0.488-2.758,1.683-5.376,3.618-7.401
				C440.671,127.85,442.134,124.483,442.134,120.769z"/>
			<g>
				
					<path style="fill:none;stroke:#FFFFFF;stroke-width:1.0217;stroke-linecap:round;stroke-linejoin:round;stroke-miterlimit:10;" d="
					M423.376,126.683c0,0-0.209-8.728,1.047-8.728c1.256,0,1.989,5.476,1.204,5.305c-0.785-0.171-0.576-5.305,1.047-5.305
					s2.355,5.305,1.413,5.305s0-5.305,1.465-5.305c1.466,0,1.81,5.305,1.193,5.305c-0.617,0-0.329-5.305,1.346-5.305
					c1.675,0,0.827,8.728,0.827,8.728"/>
			</g>
			<g>
				
					<line style="fill:none;stroke:#FFFFFF;stroke-width:1.0217;stroke-linecap:round;stroke-linejoin:round;stroke-miterlimit:10;" x1="428.259" y1="95.633" x2="428.259" y2="103.049"/>
				
					<line style="fill:none;stroke:#FFFFFF;stroke-width:1.0217;stroke-linecap:round;stroke-linejoin:round;stroke-miterlimit:10;" x1="415.672" y1="99.087" x2="419.38" y2="105.509"/>
				
					<line style="fill:none;stroke:#FFFFFF;stroke-width:1.0217;stroke-linecap:round;stroke-linejoin:round;stroke-miterlimit:10;" x1="406.499" y1="108.372" x2="412.921" y2="112.079"/>
				
					<line style="fill:none;stroke:#FFFFFF;stroke-width:1.0217;stroke-linecap:round;stroke-linejoin:round;stroke-miterlimit:10;" x1="443.465" y1="129.714" x2="449.887" y2="133.422"/>
				
					<line style="fill:none;stroke:#FFFFFF;stroke-width:1.0217;stroke-linecap:round;stroke-linejoin:round;stroke-miterlimit:10;" x1="403.197" y1="120.999" x2="410.613" y2="120.999"/>
				
					<line style="fill:none;stroke:#FFFFFF;stroke-width:1.0217;stroke-linecap:round;stroke-linejoin:round;stroke-miterlimit:10;" x1="445.882" y1="120.999" x2="453.297" y2="120.999"/>
				
					<line style="fill:none;stroke:#FFFFFF;stroke-width:1.0217;stroke-linecap:round;stroke-linejoin:round;stroke-miterlimit:10;" x1="406.651" y1="133.585" x2="413.073" y2="129.878"/>
				
					<line style="fill:none;stroke:#FFFFFF;stroke-width:1.0217;stroke-linecap:round;stroke-linejoin:round;stroke-miterlimit:10;" x1="443.617" y1="112.243" x2="450.039" y2="108.535"/>
				
					<line style="fill:none;stroke:#FFFFFF;stroke-width:1.0217;stroke-linecap:round;stroke-linejoin:round;stroke-miterlimit:10;" x1="437.278" y1="105.793" x2="440.986" y2="99.37"/>
			</g>
		</g>
		<g>
			<g>
				<path style="fill:#262F57;" d="M511.835,196.966h-80.997c-2.658,0-4.813-2.155-4.813-4.813l0,0c0-2.658,2.155-4.813,4.813-4.813
					h80.997c2.658,0,4.813,2.155,4.813,4.813l0,0C516.647,194.811,514.493,196.966,511.835,196.966z"/>
				<path style="fill:#FFFFFF;" d="M491.709,187.34h-60.69c-2.314,0-4.44,1.549-4.895,3.818c-0.62,3.094,1.73,5.808,4.713,5.808
					h60.871V187.34z"/>
			</g>
			<circle style="fill:#FFE100;" cx="494.596" cy="192.153" r="7.806"/>
		</g>
		<g>
			<rect x="105.627" y="128.962" style="fill:#6A80F2;" width="113.789" height="173.124"/>
			<rect x="101.331" y="124.588" style="fill:#FFFFFF;" width="113.789" height="173.124"/>
			<g>
				
					<ellipse transform="matrix(0.921 -0.3897 0.3897 0.921 -57.8243 75.9221)" style="fill:#9EAEFF;" cx="158.226" cy="180.49" rx="37.231" ry="37.231"/>
				<path style="fill:#F24693;" d="M164.529,143.802l-6.303,36.689l34.121,14.898c1.995-4.563,3.109-9.599,3.109-14.898
					C195.457,162.078,182.087,146.798,164.529,143.802z"/>
				<path style="fill:#4862E0;" d="M158.226,180.49l22.756,29.457c4.86-3.76,8.762-8.694,11.284-14.379L158.226,180.49z"/>
				<path style="fill:#262F57;" d="M158.226,180.49l-33.315,16.617c6.106,12.218,18.727,20.613,33.315,20.613
					c8.573,0,16.462-2.905,22.756-7.774L158.226,180.49z"/>
				<path style="fill:#DDFF00;" d="M121.075,178.165c-0.047,0.77-0.079,1.543-0.079,2.325c0,5.974,1.415,11.614,3.915,16.617l0,0
					l33.315-16.617L121.075,178.165z"/>
			</g>
			<g>
				<g>
					<g>
						<path style="fill:#F24693;" d="M121.108,238.16c0,1.732-1.404,3.136-3.135,3.136c-1.732,0-3.135-1.404-3.135-3.136
							c0-1.732,1.404-3.135,3.135-3.135C119.704,235.025,121.108,236.428,121.108,238.16z"/>
						
							<line style="fill:none;stroke:#9EAEFF;stroke-width:0.5188;stroke-miterlimit:10;" x1="124.549" y1="238.16" x2="174.27" y2="238.16"/>
					</g>
					<g>
						<path style="fill:#4862E0;" d="M121.108,252.216c0,1.732-1.404,3.136-3.135,3.136c-1.732,0-3.135-1.404-3.135-3.136
							c0-1.732,1.404-3.135,3.135-3.135C119.704,249.08,121.108,250.484,121.108,252.216z"/>
						
							<line style="fill:none;stroke:#9EAEFF;stroke-width:0.5188;stroke-miterlimit:10;" x1="124.549" y1="252.216" x2="174.27" y2="252.216"/>
					</g>
					<g>
						<path style="fill:#262F57;" d="M121.108,266.271c0,1.732-1.404,3.136-3.135,3.136c-1.732,0-3.135-1.404-3.135-3.136
							c0-1.732,1.404-3.135,3.135-3.135C119.704,263.136,121.108,264.54,121.108,266.271z"/>
						
							<line style="fill:none;stroke:#9EAEFF;stroke-width:0.5188;stroke-miterlimit:10;" x1="124.549" y1="266.271" x2="174.27" y2="266.271"/>
					</g>
					<g>
						<path style="fill:#DDFF00;" d="M121.108,280.327c0,1.732-1.404,3.136-3.135,3.136c-1.732,0-3.135-1.404-3.135-3.136
							c0-1.732,1.404-3.135,3.135-3.135C119.704,277.191,121.108,278.595,121.108,280.327z"/>
						
							<line style="fill:none;stroke:#9EAEFF;stroke-width:0.5188;stroke-miterlimit:10;" x1="124.549" y1="280.327" x2="174.27" y2="280.327"/>
					</g>
				</g>
				
					<polyline style="fill:none;stroke:#9EAEFF;stroke-width:3.065;stroke-linecap:round;stroke-linejoin:round;stroke-miterlimit:10;" points="
					187.057,269.048 201.615,259.243 187.057,249.439 				"/>
			</g>
			<g>
				<g>
					<g>
						
							<line style="fill:none;stroke:#4862E0;stroke-width:1.0217;stroke-linecap:round;stroke-linejoin:round;stroke-miterlimit:10;" x1="101.331" y1="108.979" x2="108.839" y2="115.924"/>
						
							<line style="fill:none;stroke:#4862E0;stroke-width:1.0217;stroke-linecap:round;stroke-linejoin:round;stroke-miterlimit:10;" x1="108.839" y1="108.979" x2="101.331" y2="115.924"/>
					</g>
					
						<rect x="114.29" y="108.979" style="fill:none;stroke:#4862E0;stroke-width:1.0217;stroke-linecap:round;stroke-linejoin:round;stroke-miterlimit:10;" width="6.944" height="6.944"/>
					
						<path style="fill:none;stroke:#4862E0;stroke-width:1.0217;stroke-linecap:round;stroke-linejoin:round;stroke-miterlimit:10;" d="
						M133.73,112.452c0,1.945-1.577,3.522-3.522,3.522c-1.945,0-3.522-1.577-3.522-3.522c0-1.945,1.577-3.522,3.522-3.522
						C132.153,108.929,133.73,110.506,133.73,112.452z"/>
				</g>
				
					<line style="fill:none;stroke:#4862E0;stroke-width:1.0217;stroke-linecap:round;stroke-linejoin:round;stroke-miterlimit:10;" x1="137.489" y1="112.452" x2="185.237" y2="112.452"/>
			</g>
		</g>
		<g>
			
				<line style="fill:none;stroke:#FFFFFF;stroke-width:2.0434;stroke-miterlimit:10;" x1="549.994" y1="287.433" x2="515.417" y2="287.433"/>
			
				<line style="fill:none;stroke:#FFFFFF;stroke-width:2.0434;stroke-miterlimit:10;" x1="549.994" y1="301.046" x2="518.003" y2="301.046"/>
			
				<line style="fill:none;stroke:#FFFFFF;stroke-width:2.0434;stroke-miterlimit:10;" x1="549.994" y1="314.66" x2="522.313" y2="314.66"/>
			
				<line style="fill:none;stroke:#FFFFFF;stroke-width:2.0434;stroke-miterlimit:10;" x1="549.994" y1="328.273" x2="526.91" y2="328.273"/>
		</g>
		<g>
			<rect x="468.991" y="83.751" style="fill:#4862E0;" width="147.496" height="13.7"/>
			<g>
				<rect x="472.414" y="104.877" style="fill:#6A80F2;" width="147.496" height="67.469"/>
				<rect x="468.991" y="101.646" style="fill:#FFFFFF;" width="147.496" height="67.469"/>
				<rect x="480.098" y="112.243" style="fill:#F24693;" width="123.587" height="43.048"/>
				<polygon style="fill:#FFE100;" points="480.098,155.291 603.685,155.291 603.685,116.036 583.087,134.594 562.489,125.01 
					541.721,141.209 521.293,130.944 500.695,145.489 480.098,140.415 				"/>
				
					<line style="fill:none;stroke:#F24693;stroke-width:0.4947;stroke-miterlimit:10;" x1="500.695" y1="145.489" x2="500.695" y2="155.291"/>
				
					<line style="fill:none;stroke:#F24693;stroke-width:0.4947;stroke-miterlimit:10;" x1="521.293" y1="130.944" x2="521.293" y2="155.291"/>
				
					<line style="fill:none;stroke:#F24693;stroke-width:0.4947;stroke-miterlimit:10;" x1="541.891" y1="141.209" x2="541.891" y2="155.351"/>
				
					<line style="fill:none;stroke:#F24693;stroke-width:0.4947;stroke-miterlimit:10;" x1="562.489" y1="125.01" x2="562.489" y2="155.291"/>
				
					<line style="fill:none;stroke:#F24693;stroke-width:0.4947;stroke-miterlimit:10;" x1="583.087" y1="134.594" x2="583.087" y2="155.291"/>
			</g>
			<g>
				<g>
					<g>
						
							<line style="fill:none;stroke:#FFFFFF;stroke-width:1.0217;stroke-linecap:round;stroke-linejoin:round;stroke-miterlimit:10;" x1="612.453" y1="87.129" x2="604.946" y2="94.073"/>
						
							<line style="fill:none;stroke:#FFFFFF;stroke-width:1.0217;stroke-linecap:round;stroke-linejoin:round;stroke-miterlimit:10;" x1="604.946" y1="87.129" x2="612.453" y2="94.073"/>
					</g>
					
						<rect x="592.551" y="87.129" transform="matrix(-1 -1.224647e-16 1.224647e-16 -1 1192.0455 181.2024)" style="fill:none;stroke:#FFFFFF;stroke-width:1.0217;stroke-linecap:round;stroke-linejoin:round;stroke-miterlimit:10;" width="6.944" height="6.944"/>
					
						<path style="fill:none;stroke:#FFFFFF;stroke-width:1.0217;stroke-linecap:round;stroke-linejoin:round;stroke-miterlimit:10;" d="
						M580.055,90.601c0,1.945,1.577,3.522,3.522,3.522c1.945,0,3.522-1.577,3.522-3.522c0-1.945-1.577-3.522-3.522-3.522
						C581.632,87.079,580.055,88.656,580.055,90.601z"/>
				</g>
				
					<line style="fill:none;stroke:#FFFFFF;stroke-width:1.0217;stroke-linecap:round;stroke-linejoin:round;stroke-miterlimit:10;" x1="576.295" y1="90.601" x2="533.151" y2="90.601"/>
			</g>
		</g>
		<g>
			<rect x="532.972" y="192.824" style="fill:#6A80F2;" width="135.539" height="78.06"/>
			<g>
				<g>
					<g>
						
							<line style="fill:none;stroke:#4862E0;stroke-width:1.0217;stroke-linecap:round;stroke-linejoin:round;stroke-miterlimit:10;" x1="660.767" y1="193.039" x2="653.26" y2="199.983"/>
						
							<line style="fill:none;stroke:#4862E0;stroke-width:1.0217;stroke-linecap:round;stroke-linejoin:round;stroke-miterlimit:10;" x1="653.26" y1="193.039" x2="660.767" y2="199.983"/>
					</g>
					
						<rect x="640.865" y="193.039" transform="matrix(-1 -1.224647e-16 1.224647e-16 -1 1288.6738 393.0214)" style="fill:none;stroke:#4862E0;stroke-width:1.0217;stroke-linecap:round;stroke-linejoin:round;stroke-miterlimit:10;" width="6.944" height="6.944"/>
					
						<path style="fill:none;stroke:#4862E0;stroke-width:1.0217;stroke-linecap:round;stroke-linejoin:round;stroke-miterlimit:10;" d="
						M628.369,196.511c0,1.945,1.577,3.522,3.522,3.522c1.945,0,3.522-1.577,3.522-3.522c0-1.945-1.577-3.522-3.522-3.522
						C629.946,192.988,628.369,194.565,628.369,196.511z"/>
				</g>
			</g>
			<rect x="529.365" y="188.895" style="fill:#FFFFFF;" width="135.539" height="78.06"/>
			<g>
				<circle style="fill:#FFE100;" cx="597.134" cy="226.393" r="14.31"/>
				<path style="fill:#4862E0;" d="M603.038,222.456c0,3.261-2.643,5.904-5.904,5.904c-3.261,0-5.904-2.643-5.904-5.904
					c0-3.261,2.643-5.904,5.904-5.904C600.395,216.552,603.038,219.196,603.038,222.456z"/>
				<path style="fill:#4862E0;" d="M597.134,240.702c4.214,0,7.99-1.832,10.609-4.731c-2.207-3.544-6.127-5.91-10.609-5.91
					c-4.482,0-8.402,2.367-10.609,5.91C589.144,238.87,592.92,240.702,597.134,240.702z"/>
			</g>
			<g>
				<circle style="fill:#FFE100;" cx="558.643" cy="226.393" r="14.31"/>
				<path style="fill:#262F57;" d="M564.547,222.456c0,3.261-2.643,5.904-5.904,5.904c-3.261,0-5.904-2.643-5.904-5.904
					c0-3.261,2.643-5.904,5.904-5.904C561.904,216.552,564.547,219.196,564.547,222.456z"/>
				<path style="fill:#262F57;" d="M558.643,240.702c4.214,0,7.99-1.832,10.609-4.731c-2.207-3.544-6.127-5.91-10.609-5.91
					s-8.402,2.367-10.609,5.91C550.653,238.87,554.43,240.702,558.643,240.702z"/>
			</g>
			
				<line style="fill:none;stroke:#6A80F2;stroke-width:0.5718;stroke-miterlimit:10;" x1="533.176" y1="203.83" x2="661.811" y2="203.83"/>
			<g>
				<circle style="fill:#FFE100;" cx="635.625" cy="226.393" r="14.31"/>
				<path style="fill:#F24693;" d="M641.529,222.456c0,3.261-2.643,5.904-5.904,5.904c-3.261,0-5.904-2.643-5.904-5.904
					c0-3.261,2.643-5.904,5.904-5.904C638.885,216.552,641.529,219.196,641.529,222.456z"/>
				<path style="fill:#F24693;" d="M635.625,240.702c4.214,0,7.99-1.832,10.609-4.731c-2.207-3.544-6.127-5.91-10.609-5.91
					c-4.482,0-8.402,2.367-10.609,5.91C627.635,238.87,631.411,240.702,635.625,240.702z"/>
			</g>
			<path style="fill:#C4CDFF;" d="M571.025,251.908h-24.763c-1.065,0-1.928-0.863-1.928-1.928l0,0c0-1.065,0.863-1.928,1.928-1.928
				h24.763c1.065,0,1.928,0.863,1.928,1.928l0,0C572.953,251.044,572.09,251.908,571.025,251.908z"/>
			<path style="fill:#C4CDFF;" d="M609.516,251.908h-24.763c-1.065,0-1.928-0.863-1.928-1.928l0,0c0-1.065,0.863-1.928,1.928-1.928
				h24.763c1.065,0,1.928,0.863,1.928,1.928l0,0C611.444,251.044,610.581,251.908,609.516,251.908z"/>
			<path style="fill:#C4CDFF;" d="M648.007,251.908h-24.763c-1.065,0-1.928-0.863-1.928-1.928l0,0c0-1.065,0.863-1.928,1.928-1.928
				h24.763c1.065,0,1.928,0.863,1.928,1.928l0,0C649.935,251.044,649.071,251.908,648.007,251.908z"/>
			<g>
				<g>
					<g>
						
							<line style="fill:none;stroke:#F24693;stroke-width:1.0217;stroke-linecap:round;stroke-linejoin:round;stroke-miterlimit:10;" x1="659.948" y1="192.551" x2="652.44" y2="199.495"/>
						
							<line style="fill:none;stroke:#F24693;stroke-width:1.0217;stroke-linecap:round;stroke-linejoin:round;stroke-miterlimit:10;" x1="652.44" y1="192.551" x2="659.948" y2="199.495"/>
					</g>
					
						<rect x="640.045" y="192.551" transform="matrix(-1 -1.224647e-16 1.224647e-16 -1 1287.0344 392.0468)" style="fill:none;stroke:#F24693;stroke-width:1.0217;stroke-linecap:round;stroke-linejoin:round;stroke-miterlimit:10;" width="6.944" height="6.944"/>
					
						<path style="fill:none;stroke:#F24693;stroke-width:1.0217;stroke-linecap:round;stroke-linejoin:round;stroke-miterlimit:10;" d="
						M627.549,196.023c0,1.945,1.577,3.522,3.522,3.522c1.945,0,3.522-1.577,3.522-3.522c0-1.945-1.577-3.522-3.522-3.522
						C629.126,192.501,627.549,194.078,627.549,196.023z"/>
				</g>
				
					<line style="fill:none;stroke:#F24693;stroke-width:1.0217;stroke-linecap:round;stroke-linejoin:round;stroke-miterlimit:10;" x1="623.79" y1="196.023" x2="580.645" y2="196.023"/>
			</g>
		</g>
		<g>
			<path style="fill:#262F57;" d="M402.079,184.066l0.671-27.681c4.598-4.598,4.789-11.398,1.916-15.996
				c-1.99-3.184-8.405-7.256-14.583-3.951c-0.838-7.064-6.824-11.087-13.003-11.757c-5.428-0.589-15.014,1.801-16.858,11.302
				c-9.195-5.651-19.659,0.503-19.851,11.23c-0.192,10.728,8.549,15.062,17.265,12.715c0,0,0.152,4.959,13.697,4.885
				c13.545-0.074,17.241,9.004,17.241,9.004S387.903,187.227,402.079,184.066z"/>
			<path style="fill:#FF8685;" d="M357.636,157.773l1.628,19.109c0,0-1.006,23.131,15.66,23.131l3.736,36.637
				c0,0,22.126,10.632,37.642-7.471l-14.224-45.113c0,0-5.603-0.862-7.471-6.322c0,0,4.598-0.934,5.172-6.106
				c0.575-5.172-1.597-6.342-3.544-6.585c-1.724-0.215-4.933,1.556-4.574,6.801l-3.305-6.034c0,0-7.351-0.766-9.65-8.237
				C378.708,157.582,365.011,165.867,357.636,157.773z"/>
			<path style="fill:#FFE3B8;" d="M416.302,209.831l-5.316-10.345c-6.874,4.085-13.54,6.301-19.355,7.45l-4.662,30.361
				c0,0-2.54-5.1-3.162-10.129c-0.621-5.029,0.097-5.1-1.268-8.62c-1.136-2.931-1.076-7.499-0.444-10.524
				c-6.092,0.186-9.935-0.683-9.935-0.683l-2.827,8.046c0,0-24.437,4.406-38.804,7.95c-14.367,3.544-26.723,22.221-32.758,34.003
				c-6.034,11.781-18.39,35.056-18.39,35.056l-2.299-6.322L244.9,307.912c0,0,7.918,48.29,40.516,49.136
				c22.126,0.575,49.136-37.93,49.136-37.93s0.443,8.851,4.597,20.402c4.789,13.314,2.299,25.574,4.598,37.068h121.643V223.337
				C447.575,216.823,416.302,209.831,416.302,209.831z"/>
			<path style="fill:#FFF9F0;" d="M449.087,376.588v-12.704h16.304v-1.373h-16.304v-19.466h16.304v-1.373h-16.304v-19.467h16.304
				v-1.373h-16.304v-19.466h16.304v-1.373h-16.304v-19.466h16.304v-1.373h-16.304v-19.467h16.304v-1.373h-16.304V238.85h16.304
				v-1.373h-16.304v-19.318c-1.815-0.519-3.637-1.027-5.447-1.52h-15.393v-3.979c-0.466-0.115-0.926-0.228-1.373-0.337v4.315
				h-19.466v-15.196c-0.458,0.234-0.918,0.474-1.373,0.692v14.504h-15.894l-0.211,1.373h16.105v19.466H386.57v-1.039
				c-0.345-0.774-0.866-2.023-1.373-3.514v4.554H365.73v-19.466h16.639c-0.14-0.434-0.258-0.891-0.354-1.373H365.73v-0.589
				c-0.429,0.08-0.881,0.164-1.373,0.256v0.333h-1.774c-2.074,0.391-4.508,0.856-7.154,1.373h8.927v19.466h-19.466v-17.346
				c-0.458,0.095-0.915,0.191-1.373,0.287v17.059h-19.467v-11.505c-0.46,0.259-0.918,0.53-1.373,0.815v10.69h-11.844
				c-0.385,0.453-0.764,0.911-1.139,1.373h12.984v19.466h-19.466v-10.443c-0.472,0.738-0.931,1.473-1.373,2.199v8.244h-4.57
				c-0.229,0.446-0.464,0.902-0.707,1.373h5.277v19.467h-15.458c-0.245,0.464-0.486,0.922-0.724,1.373h16.182v19.466h-19.466
				v-13.249c-0.512,0.968-0.974,1.841-1.373,2.594v10.655h-19.467v-3.37l-1.373,0.932v2.438h-3.593l-2.023,1.373h5.617v19.466
				h-8.039v1.373h8.039v19.467h-1.492c0.34,0.463,0.686,0.921,1.042,1.373h0.45v0.561c0.447,0.551,0.902,1.094,1.373,1.625v-2.186
				h19.467v13.582c0.452,0.076,0.91,0.141,1.373,0.197v-13.779h19.466v8.668c0.459-0.28,0.916-0.568,1.373-0.863v-7.805h10.064
				c0.508-0.455,1.013-0.911,1.51-1.373h-11.575v-19.467h19.466v11.472c0.469-0.513,0.926-1.02,1.373-1.522v-9.95h8.215
				c0.389-0.509,0.743-0.978,1.036-1.373h-9.251v-19.466h19.467v19.466h-8.815c0.043,0.394,0.098,0.857,0.166,1.373h8.649v19.467
				h-3.662c0.14,0.459,0.264,0.916,0.389,1.373h3.273v19.466h-1c0.015,0.459,0.032,0.917,0.047,1.373h0.953v11.394
				c0.074,0.437,0.142,0.875,0.229,1.31h1.144v-12.704h19.466v12.704h1.373v-12.704h19.467v12.704h1.373v-12.704h19.466v12.704
				h1.373v-12.704h19.466v12.704h1.373v-12.704h19.467v12.704H449.087z M281.002,341.673h-19.467v-19.467h19.467V341.673z
				 M281.002,320.833h-19.467v-19.466h19.467V320.833z M301.84,341.673h-19.466v-19.467h19.466V341.673z M301.84,320.833h-19.466
				v-19.466h19.466V320.833z M322.679,320.833h-19.466v-19.466h19.466V320.833z M322.679,299.994h-19.466v-19.466h19.466V299.994z
				 M322.679,279.156h-19.466v-19.467h19.466V279.156z M343.519,299.994h-19.467v-19.466h19.467V299.994z M343.519,279.156h-19.467
				v-19.467h19.467V279.156z M343.519,258.316h-19.467V238.85h19.467V258.316z M364.357,362.511h-19.466v-19.466h19.466V362.511z
				 M364.357,341.673h-19.466v-19.467h19.466V341.673z M364.357,320.833h-19.466v-19.466h19.466V320.833z M364.357,299.994h-19.466
				v-19.466h19.466V299.994z M364.357,279.156h-19.466v-19.467h19.466V279.156z M364.357,258.316h-19.466V238.85h19.466V258.316z
				 M385.197,362.511H365.73v-19.466h19.467V362.511z M385.197,341.673H365.73v-19.467h19.467V341.673z M385.197,320.833H365.73
				v-19.466h19.467V320.833z M385.197,299.994H365.73v-19.466h19.467V299.994z M385.197,279.156H365.73v-19.467h19.467V279.156z
				 M385.197,258.316H365.73V238.85h19.467V258.316z M406.036,362.511H386.57v-19.466h19.466V362.511z M406.036,341.673H386.57
				v-19.467h19.466V341.673z M406.036,320.833H386.57v-19.466h19.466V320.833z M406.036,299.994H386.57v-19.466h19.466V299.994z
				 M406.036,279.156H386.57v-19.467h19.466V279.156z M406.036,258.316H386.57V238.85h19.466V258.316z M426.874,362.511h-19.466
				v-19.466h19.466V362.511z M426.874,341.673h-19.466v-19.467h19.466V341.673z M426.874,320.833h-19.466v-19.466h19.466V320.833z
				 M426.874,299.994h-19.466v-19.466h19.466V299.994z M426.874,279.156h-19.466v-19.467h19.466V279.156z M426.874,258.316h-19.466
				V238.85h19.466V258.316z M426.874,237.477h-19.466v-19.466h19.466V237.477z M428.247,218.011h19.467v19.466h-19.467V218.011z
				 M428.247,238.85h19.467v19.466h-19.467V238.85z M428.247,259.689h19.467v19.467h-19.467V259.689z M428.247,280.529h19.467
				v19.466h-19.467V280.529z M428.247,301.367h19.467v19.466h-19.467V301.367z M428.247,322.206h19.467v19.467h-19.467V322.206z
				 M428.247,362.511v-19.466h19.467v19.466H428.247z"/>
			<path style="fill:none;stroke:#354FCC;stroke-width:0.5108;stroke-miterlimit:10;" d="M401.504,143.478
				c0,0,3.376,7.04-2.873,13.003"/>
			<path style="fill:none;stroke:#354FCC;stroke-width:0.5108;stroke-miterlimit:10;" d="M397.697,146.423
				c0,0,2.73,3.951-1.724,10.057"/>
			<path style="fill:none;stroke:#354FCC;stroke-width:0.5108;stroke-miterlimit:10;" d="M394.68,149.584
				c0,0,1.437,3.161-1.149,7.255"/>
			<path style="fill:none;stroke:#354FCC;stroke-width:0.5108;stroke-miterlimit:10;" d="M344.538,143.837
				c-2.011,5.029,0.431,14.655,11.709,13.362"/>
			<path style="fill:none;stroke:#354FCC;stroke-width:0.5108;stroke-miterlimit:10;" d="M346.812,149.297
				c0,0,2.682,6.25,9.435,3.915"/>
			<path style="fill:none;stroke:#873636;stroke-width:0.6167;stroke-miterlimit:10;" d="M370.375,174.631
				c0,0-1.676,3.831-1.437,4.981c0.24,1.149,3.688,0,5.46,0"/>
			<path style="fill:#262F57;" d="M371.656,179.962c2.303-0.33,3.843,0.225,4.49,1.195c0,0,2.981-0.036,3.52,1.401
				c0,0,3.736,0.575,3.592,1.724s-7.543,0.267-9.626,0.267c-2.083,0-3.556,0.164-5.711,0.667c-2.155,0.503-4.629,0.728-4.773-0.026
				c-0.144-0.754,3.659-2.432,3.659-2.432s1.185-1.851,2.802-1.815C369.609,180.941,369.994,180.2,371.656,179.962z"/>
			<path style="fill:none;stroke:#873636;stroke-width:0.6167;stroke-miterlimit:10;" d="M369.609,188.184
				c0,0,2.155,1.58,6.513-0.24"/>
			<path style="fill:#FF6666;" d="M374.924,200.014c5.902,0.088,12.332-2.417,16.567-8.297c0.38-0.527,1.207-0.268,1.198,0.382
				c-0.054,3.962-1.955,12.55-17.15,13.945L374.924,200.014z"/>
			<path style="fill:none;stroke:#873636;stroke-width:0.6167;stroke-miterlimit:10;" d="M393.53,173.242
				c-0.12-2.778,1.14-6.354,3.424-6.322c2.284,0.032,1.57,4.358,1.57,4.358"/>
			<path style="fill:none;stroke:#FFFFFF;stroke-width:0.7663;stroke-miterlimit:10;" d="M384.541,169.663
				c0,3.419-2.771,6.19-6.19,6.19c-3.419,0-6.19-2.771-6.19-6.19c0-3.419,2.771-6.19,6.19-6.19
				C381.769,163.473,384.541,166.244,384.541,169.663z"/>
			<path style="fill:none;stroke:#FFFFFF;stroke-width:0.7663;stroke-miterlimit:10;" d="M369.334,169.663
				c0,3.419-2.771,6.19-6.19,6.19s-6.19-2.771-6.19-6.19c0-3.419,2.771-6.19,6.19-6.19S369.334,166.244,369.334,169.663z"/>
			<path style="fill:none;stroke:#FFFFFF;stroke-width:0.7663;stroke-miterlimit:10;" d="M369.294,168.971c0,0,1.145-1.015,2.867,0"
				/>
			<path style="fill:#262F57;" d="M377.212,169.438c0,1.071-0.45,1.94-1.006,1.94c-0.556,0-1.006-0.868-1.006-1.94
				c0-1.071,0.45-1.94,1.006-1.94C376.762,167.498,377.212,168.366,377.212,169.438z"/>
			<ellipse style="fill:#262F57;" cx="361.623" cy="169.438" rx="1.006" ry="1.94"/>
			
				<line style="fill:none;stroke:#FFFFFF;stroke-width:0.7663;stroke-miterlimit:10;" x1="384.152" y1="167.498" x2="392.548" y2="167.498"/>
			
				<path style="fill:none;stroke:#262F57;stroke-width:1.0217;stroke-linecap:round;stroke-linejoin:round;stroke-miterlimit:10;" d="
				M374.745,162.048c0,0,4.167-2.299,8.836,0.862"/>
			
				<path style="fill:none;stroke:#262F57;stroke-width:1.0217;stroke-linecap:round;stroke-linejoin:round;stroke-miterlimit:10;" d="
				M365.873,162.323c0,0-3.818-1.94-7.799,0.587"/>
			<path style="fill:#D9B680;" d="M319.826,228.775c-9.65,7.342-17.586,19.841-22.055,28.564
				c-6.034,11.781-18.39,35.056-18.39,35.056s11.111,7.758,16.091,18.486c4.981,10.727,8.429,46.713-19.825,44.334
				c2.979,1.089,6.228,1.741,9.768,1.833c22.126,0.575,49.136-37.93,49.136-37.93c-1.581-12.787-5.316-31.081-5.316-31.081
				S309.841,274.746,319.826,228.775z"/>
			<g>
				<path style="fill:#FFE3B8;" d="M318.032,238.85c0.064-0.458,0.121-0.907,0.191-1.373h-7.376
					c-0.321,0.377-0.642,0.754-0.956,1.137c-0.044,0.054-0.09,0.107-0.134,0.161c-0.02,0.025-0.039,0.05-0.059,0.075H318.032z"/>
				<path style="fill:#FFE3B8;" d="M282.374,354.982c-0.446,0.076-0.904,0.138-1.373,0.188v1.437
					c0.453,0.076,0.909,0.147,1.373,0.204V354.982z"/>
				<path style="fill:#FFE3B8;" d="M331.769,301.367c-0.083-0.464-0.165-0.922-0.247-1.373h-7.471V282.08
					c-0.554-0.866-1.116-1.837-1.672-2.924h-19.166v-19.467h14.035c-0.038-0.45-0.069-0.91-0.1-1.373h-13.935V247.88
					c-0.037,0.058-0.076,0.117-0.113,0.175c-0.33,0.518-0.648,1.031-0.963,1.543c-0.098,0.159-0.2,0.32-0.296,0.478v8.24h-4.57
					c-0.227,0.442-0.459,0.893-0.7,1.36c-0.002,0.004-0.005,0.009-0.007,0.013h5.277v19.467h-15.458
					c-0.084,0.159-0.166,0.315-0.249,0.472c-0.159,0.301-0.319,0.605-0.475,0.901h16.182v19.466h-13.949
					c0.41,0.442,0.822,0.9,1.233,1.373h12.716v19.466h-3.643c0.069,0.45,0.129,0.911,0.189,1.373h3.454v19.467h-4.8
					c-0.155,0.466-0.328,0.921-0.506,1.373h5.306v8.668c0,0,0,0,0,0c0.459-0.279,0.916-0.567,1.372-0.863c0,0,0.001,0,0.001,0
					v-7.805h10.064c0.001-0.001,0.001-0.001,0.002-0.002c0.507-0.454,1.012-0.91,1.508-1.371h-11.575v-19.467h19.466v11.472
					c0,0,0-0.001,0.001-0.001c0.468-0.513,0.925-1.019,1.372-1.521c0,0,0,0,0.001-0.001v-9.95h8.215c0,0,0,0,0,0
					c0.388-0.509,0.742-0.978,1.036-1.372h-9.251v-19.466H331.769z M322.679,320.833h-19.466v-19.466h19.466V320.833z
					 M322.679,299.994h-19.466v-19.466h19.466V299.994z"/>
				<path style="fill:#FFE3B8;" d="M282.374,294.745v-7.999c-0.034,0.063-0.062,0.118-0.095,0.18
					c-0.199,0.375-0.388,0.733-0.57,1.077c-0.046,0.087-0.09,0.17-0.135,0.255c-0.172,0.324-0.335,0.633-0.49,0.925
					c-0.026,0.049-0.057,0.108-0.083,0.156v4.282C281.402,293.939,281.864,294.314,282.374,294.745z"/>
			</g>
			<path style="fill:#D9B680;" d="M465.391,376.588v-90.455l-8.142-8.967c0,0-10.486,72.841-90.066,99.422H465.391z"/>
			<g>
				<path style="fill:#FFE3B8;" d="M385.197,369.272v7.316h1.373v-7.994C386.114,368.821,385.659,369.048,385.197,369.272z"/>
				<path style="fill:#FFE3B8;" d="M459.056,279.156h-2.165c-0.08,0.402-0.175,0.86-0.288,1.373h3.699L459.056,279.156z"/>
				<path style="fill:#FFE3B8;" d="M449.087,303.109c-0.434,0.989-0.894,1.997-1.373,3.018v14.706h-8.038
					c-0.288,0.456-0.585,0.915-0.882,1.373h8.92v19.467h-19.467v-5.345c-0.452,0.527-0.907,1.054-1.373,1.58v3.765h-3.466
					c-0.44,0.459-0.893,0.916-1.345,1.373h4.81v19.466h-19.466v-6.697c-0.451,0.337-0.913,0.67-1.373,1.004v5.693h-8.495
					c-0.751,0.463-1.514,0.919-2.284,1.373h10.779v12.704h1.373v-12.704h19.466v12.704h1.373v-12.704h19.467v12.704h1.373v-12.704
					h16.304v-1.373h-16.304v-19.466h16.304v-1.373h-16.304v-19.467h16.304v-1.373h-16.304V303.109z M447.714,362.511h-19.467
					v-19.466h19.467V362.511z"/>
				<path style="fill:#FFE3B8;" d="M449.838,301.367h15.553v-1.373h-14.98C450.225,300.447,450.033,300.905,449.838,301.367z"/>
			</g>
			<path style="fill:none;stroke:#A6834C;stroke-width:0.7998;stroke-miterlimit:10;" d="M386.969,239.752
				c-0.953,10.779-2.217,20.349,0.852,33.169c3.07,12.82,1.986,22.752,1.264,34.85c-0.722,12.098-2.21,18.96,0.791,32.141
				c3.001,13.182,4.987,28.21,3.182,36.676"/>
			
				<line style="fill:none;stroke:#A6834C;stroke-width:0.7998;stroke-miterlimit:10;" x1="286.757" y1="296.61" x2="309.457" y2="310.115"/>
			
				<line style="fill:none;stroke:#A6834C;stroke-width:0.7998;stroke-miterlimit:10;" x1="286.757" y1="294.694" x2="302.465" y2="296.993"/>
			<path style="fill:none;stroke:#A6834C;stroke-width:0.7998;stroke-miterlimit:10;" d="M317.024,288.037
				c0,0,3.728,19.824,16.591,24.375"/>
			<path style="fill:#FF8685;" d="M276.917,285.167l-32.374-50.956c0,0-8.046-15.708-10.249-18.39
				c-2.203-2.682-18.199-15.517-18.199-15.517s-1.916,2.107,0,4.023c1.916,1.916,9.77,11.781,9.77,11.781s-2.873-0.096-3.257,4.023
				c0,0-3.161,0-3.352,3.64c0,0-1.724,0.671-1.82,4.119c-0.096,3.448,0.958,5.46,2.299,7.184c1.341,1.724,4.789,2.012,4.789,2.012
				s1.916,6.226,9.195,5.651l12.361,64.701C246.08,307.436,268.632,301.833,276.917,285.167z"/>
			<path style="fill:#FF6666;" d="M237.924,234.445c-3.906-0.631-6.137-2.716-6.137-2.716c-1.046,2.79-3.069,3.139-3.069,3.139
				s-1.255,2.79-4.193,2.216c0,0,0.796,2.551,3.275,4.236C237.533,240.934,241.828,235.077,237.924,234.445z"/>
			<path style="fill:#FF6666;" d="M246.08,307.436c0,0,22.551-5.603,30.837-22.27l-15.355-24.168
				c1.77,14.346,1.102,34.963-18.38,31.263L246.08,307.436z"/>
			<path style="fill:none;stroke:#873636;stroke-width:0.6167;stroke-miterlimit:10;" d="M235.849,223.935
				c0,0-5.244-1.365-7.615-0.862c-2.371,0.503-5.891,7.758-4.957,8.656c0.934,0.898,5.029-3.095,5.029-3.095
				s5.558,5.555,8.885,5.672"/>
			<path style="fill:none;stroke:#873636;stroke-width:0.6167;stroke-miterlimit:10;" d="M227.324,218.787
				c0,0,0.239,2.969,0.91,4.286"/>
			<path style="fill:none;stroke:#873636;stroke-width:0.6167;stroke-miterlimit:10;" d="M223.123,221.421
				c0,0,0.038,3.209,1.401,5.651"/>
			<path style="fill:none;stroke:#873636;stroke-width:0.6167;stroke-miterlimit:10;" d="M219.661,225.204
				c0,0,0.048,3.113,2.203,6.082c2.155,2.969,5.46,3.02,5.46,3.02"/>
			<path style="fill:none;stroke:#A6834C;stroke-width:0.7998;stroke-miterlimit:10;" d="M429.52,280.902h-24.568
				c0,0-4.629,25.43,11.335,25.43s13.808-23.706,13.808-23.706"/>
			<path style="fill:#D9B680;" d="M286.757,299.869l-4.64-12.636c-1.662,3.141-2.735,5.163-2.735,5.163l-2.299-6.322L244.9,307.912
				c0,0,1.574,9.582,6.197,20.283C275.91,326.215,286.757,299.869,286.757,299.869z"/>
			<path style="fill:#FF8685;" d="M451.072,411.214h-58.763c0,0-4.023,4.885-11.278,5.675c-7.256,0.79-11.757,0.503-11.757,0.503
				s-7.327,6.274-10.728,5.172l1.077-1.652c0,0-2.802,0.431-3.879-0.647l1.149-1.437c0,0-3.017,1.868-4.382,0.79l2.299-3.52
				c0,0,0.359-6.178,1.437-7.83c1.077-1.652,10.632-2.371,10.632-2.371s12.715-4.023,22.341-4.454l48.562-22.7
				C437.782,378.743,451.503,394.619,451.072,411.214z"/>
			<path style="fill:#FF6666;" d="M428.74,411.214h22.331c0.431-16.594-13.29-32.47-13.29-32.47l-6.695,3.129
				C433.059,387.261,437.163,401.744,428.74,411.214z"/>
			<path style="fill:none;stroke:#873636;stroke-width:0.6167;stroke-miterlimit:10;" d="M390.92,409.489
				c0,0,1.006,0.192,4.119-0.91"/>
			<path style="fill:none;stroke:#873636;stroke-width:0.6167;stroke-miterlimit:10;" d="M359.887,420.744
				c0,0,3.927-3.736,6.37-4.981c2.443-1.245,4.358-1.82,4.358-1.82"/>
			<path style="fill:none;stroke:#873636;stroke-width:0.6167;stroke-miterlimit:10;" d="M356.893,418.828
				c0,0,3.999-4.406,7.016-6.034c3.017-1.628,4.597-2.059,4.597-2.059"/>
			<path style="fill:none;stroke:#873636;stroke-width:0.6167;stroke-miterlimit:10;" d="M354.81,416.098
				c2.826-5.172,11.685-8.046,11.685-8.046"/>
			
				<line style="fill:none;stroke:#873636;stroke-width:0.6167;stroke-miterlimit:10;" x1="358.718" y1="411.98" x2="359.168" y2="409.502"/>
			<polyline style="fill:none;stroke:#A6834C;stroke-width:0.7998;stroke-miterlimit:10;" points="393.747,208.299 396.811,220.846 
				413.956,211.555 			"/>
			<polyline style="fill:none;stroke:#A6834C;stroke-width:0.7998;stroke-miterlimit:10;" points="380.097,210.143 377.654,220.846 
				370.255,216.638 			"/>
			<path style="fill:#FFFFFF;" d="M277.227,279.609c-18.965,20.114-35.056,24.137-35.056,24.137l4.166,21.12
				c9.174-1.126,16.607-4.048,22.552-7.622l-7.897-15.653l11.941,12.968c11.536-8.43,16.076-18.715,16.076-18.715L277.227,279.609z"
				/>
			<path style="fill:#FFE3B8;" d="M465.391,223.337c17.432,5.747,33.524,18.39,40.229,44.251
				c6.705,25.861,13.793,60.534,17.049,79.883c3.257,19.348,6.705,51.914-16.283,59.002c-22.988,7.088-41.953,5.364-48.274,5.364
				c0,0-10.728-16.091-18.965-37.547l19.923-13.026c0,0-5.747-3.448-1.341-7.854c0,0-1.533-2.107,0.192-5.555
				c0,0-8.046-29.692-14.75-52.489C436.465,272.569,449.108,229.467,465.391,223.337z"/>
			<path style="fill:#FFF9F0;" d="M510.231,286.436v13.558h-19.466v-19.466h18.072c-0.11-0.46-0.22-0.916-0.331-1.373h-17.741
				v-19.467h12.363c-0.172-0.461-0.344-0.922-0.523-1.373h-11.841v-19.103c-0.554-0.597-1.119-1.172-1.69-1.736h-19.149V225.01
				c-0.457-0.187-0.914-0.37-1.373-0.546v13.013h-16.5c-0.245,0.451-0.487,0.908-0.726,1.373h17.225v19.466h-19.466v-14.674
				c-0.476,1.115-0.934,2.256-1.373,3.421v11.253h-3.482c-0.112,0.456-0.216,0.915-0.323,1.373h3.804v19.467h-6.35
				c-0.01,0.459-0.023,0.919-0.024,1.373h6.375v19.466h-3.192c0.132,0.456,0.265,0.914,0.398,1.373h2.794v9.742
				c0.462,1.626,0.92,3.244,1.373,4.848v-14.59h19.466v19.466h-18.094c0.129,0.459,0.258,0.919,0.385,1.373h17.71v19.467h-12.319
				c0.133,0.484,0.257,0.938,0.376,1.373h11.943v19.466H457.16l-2.1,1.373h13.492v19.466h-19.466v-15.56l-1.373,0.898v14.662h-4.822
				c0.204,0.462,0.408,0.919,0.613,1.373h4.209v8.813c0.465,0.92,0.922,1.811,1.373,2.675v-11.487h19.466v19.467h-15.095
				c0.273,0.475,0.541,0.937,0.796,1.373h14.299v6.457c0.448-0.001,0.905-0.004,1.373-0.01v-6.447h19.467v4.838
				c0.454-0.072,0.912-0.147,1.373-0.225v-4.613h18.075c0.976-0.414,1.894-0.884,2.763-1.398v-19.442h12.217
				c0.092-0.455,0.183-0.911,0.263-1.373h-12.48v-19.466h13.129c-0.033-0.46-0.072-0.916-0.11-1.373h-13.019v-19.466h10.3
				c-0.08-0.454-0.16-0.907-0.243-1.373h-10.057v-19.467h6.347c-0.091-0.457-0.183-0.913-0.275-1.373h-6.072v-19.466h1.988
				c-0.1-0.457-0.2-0.915-0.301-1.373h-1.688v-7.574C511.15,290.415,510.692,288.418,510.231,286.436z M468.553,299.994h-19.466
				v-19.466h19.466V299.994z M468.553,279.156h-19.466v-19.467h19.466V279.156z M489.392,404.19h-19.467v-19.467h19.467V404.19z
				 M489.392,383.35h-19.467v-19.466h19.467V383.35z M489.392,362.511h-19.467v-19.466h19.467V362.511z M489.392,341.673h-19.467
				v-19.467h19.467V341.673z M489.392,320.833h-19.467v-19.466h19.467V320.833z M489.392,299.994h-19.467v-19.466h19.467V299.994z
				 M489.392,279.156h-19.467v-19.467h19.467V279.156z M489.392,258.316h-19.467V238.85h19.467V258.316z M510.231,404.19h-19.466
				v-19.467h19.466V404.19z M510.231,383.35h-19.466v-19.466h19.466V383.35z M510.231,362.511h-19.466v-19.466h19.466V362.511z
				 M510.231,341.673h-19.466v-19.467h19.466V341.673z M510.231,320.833h-19.466v-19.466h19.466V320.833z"/>
			<path style="fill:none;stroke:#A6834C;stroke-width:0.7998;stroke-miterlimit:10;" d="M459.835,352.738
				c0,0,16.379-6.753,32.614,4.741"/>
			<path style="fill:none;stroke:#A6834C;stroke-width:0.7998;stroke-miterlimit:10;" d="M459.835,346.704
				c0.575-0.431,13.362-7.471,20.402-15.086"/>
			<path style="fill:none;stroke:#A6834C;stroke-width:0.7998;stroke-miterlimit:10;" d="M462.422,359.204
				c0,0,17.959,3.448,23.275,13.649"/>
			
				<line style="fill:none;stroke:#A6834C;stroke-width:0.7998;stroke-miterlimit:10;" x1="457.467" y1="346.704" x2="437.981" y2="275.059"/>
			<path style="fill:#FFFFFF;" d="M451.646,394.116l13.335-7.285c-2.655-7.468-7.391-15.22-15.681-21.45l-15.922,10.004
				c-1.148,0.721-1.307,2.328-0.315,3.253c4.505,4.201,14.769,15.794,13.789,33.504c-0.054,0.979,0.732,1.801,1.713,1.801h19.03
				c0,0,1.842-10.123-1.127-22.139L451.646,394.116z"/>
		</g>
		<g>
			<g>
				<rect x="257.498" y="121.921" style="fill:#6A80F2;" width="79.063" height="114.98"/>
			</g>
			<g>
				<rect x="254.625" y="117.686" style="fill:#FFFFFF;" width="79.063" height="114.98"/>
				<rect x="254.625" y="214.662" style="fill:#FFE100;" width="79.063" height="18.003"/>
				<g>
					<g>
						<path style="fill:#F24693;" d="M277.064,134.956c0,2.477-2.008,4.486-4.486,4.486s-4.486-2.008-4.486-4.486
							c0-2.478,2.008-4.486,4.486-4.486S277.064,132.478,277.064,134.956z"/>
						
							<line style="fill:none;stroke:#9EAEFF;stroke-width:0.5188;stroke-miterlimit:10;" x1="281.332" y1="134.956" x2="320.22" y2="134.956"/>
					</g>
					<g>
						<path style="fill:#4862E0;" d="M277.064,156.077c0,2.477-2.008,4.486-4.486,4.486s-4.486-2.008-4.486-4.486
							c0-2.478,2.008-4.486,4.486-4.486S277.064,153.6,277.064,156.077z"/>
						
							<line style="fill:none;stroke:#9EAEFF;stroke-width:0.5188;stroke-miterlimit:10;" x1="281.332" y1="156.077" x2="320.22" y2="156.077"/>
					</g>
					<g>
						<path style="fill:#262F57;" d="M277.064,177.199c0,2.477-2.008,4.486-4.486,4.486s-4.486-2.008-4.486-4.486
							c0-2.478,2.008-4.486,4.486-4.486S277.064,174.721,277.064,177.199z"/>
						
							<line style="fill:none;stroke:#9EAEFF;stroke-width:0.5188;stroke-miterlimit:10;" x1="281.332" y1="177.199" x2="320.22" y2="177.199"/>
					</g>
					<g>
						<path style="fill:#DDFF00;" d="M277.064,198.32c0,2.477-2.008,4.486-4.486,4.486s-4.486-2.008-4.486-4.486
							c0-2.477,2.008-4.486,4.486-4.486S277.064,195.842,277.064,198.32z"/>
						
							<line style="fill:none;stroke:#9EAEFF;stroke-width:0.5188;stroke-miterlimit:10;" x1="281.332" y1="198.32" x2="320.22" y2="198.32"/>
					</g>
				</g>
			</g>
			<g>
				<g>
					<g>
						
							<line style="fill:none;stroke:#4862E0;stroke-width:1.0217;stroke-linecap:round;stroke-linejoin:round;stroke-miterlimit:10;" x1="254.385" y1="102.077" x2="261.892" y2="109.022"/>
						
							<line style="fill:none;stroke:#4862E0;stroke-width:1.0217;stroke-linecap:round;stroke-linejoin:round;stroke-miterlimit:10;" x1="261.892" y1="102.077" x2="254.385" y2="109.022"/>
					</g>
					
						<rect x="267.344" y="102.077" style="fill:none;stroke:#4862E0;stroke-width:1.0217;stroke-linecap:round;stroke-linejoin:round;stroke-miterlimit:10;" width="6.944" height="6.944"/>
					
						<path style="fill:none;stroke:#4862E0;stroke-width:1.0217;stroke-linecap:round;stroke-linejoin:round;stroke-miterlimit:10;" d="
						M286.784,105.549c0,1.945-1.577,3.522-3.522,3.522c-1.945,0-3.522-1.577-3.522-3.522c0-1.945,1.577-3.522,3.522-3.522
						C285.207,102.027,286.784,103.604,286.784,105.549z"/>
				</g>
				
					<line style="fill:none;stroke:#4862E0;stroke-width:1.0217;stroke-linecap:round;stroke-linejoin:round;stroke-miterlimit:10;" x1="290.543" y1="105.549" x2="333.688" y2="105.549"/>
			</g>
		</g>
		<g>
			<g>
				<path style="fill:#6A80F2;" d="M592.306,416.36c0,3.86-11.917,6.989-26.618,6.989s-26.618-3.129-26.618-6.989
					c0-3.86,11.917-6.989,26.618-6.989S592.306,412.5,592.306,416.36z"/>
				<g>
					<g>
						<path style="fill:#FFFFFF;" d="M579.639,411.397l-1.396-2.269c1.129-1.016,3.186-1.384,5.791-1.851
							c6.042-1.083,10.663-2.295,10.663-7.117c0-6.159-6.139-7.078-9.799-7.078v-2.831c7.909,0,12.631,3.704,12.631,9.91
							c0,7.575-7.82,8.976-12.995,9.904C582.811,410.374,580.167,410.922,579.639,411.397z"/>
					</g>
					<g>
						<path style="fill:#FFE3B8;" d="M584.329,407.223c-0.099,0.018-0.195,0.036-0.296,0.055c-2.605,0.466-4.662,0.835-5.791,1.851
							l1.396,2.269c0.322-0.29,1.43-0.606,2.635-0.879C583.012,409.539,583.701,408.439,584.329,407.223z"/>
						<path style="fill:#FFE3B8;" d="M584.897,393.082c0.953,0,2.075,0.066,3.212,0.267c0.089-0.922,0.155-1.865,0.197-2.829
							c-1.06-0.171-2.192-0.269-3.409-0.269V393.082z"/>
					</g>
					<path style="fill:#FFFFFF;" d="M586.423,415.91c0,2.827-9.464,5.119-21.138,5.119c-11.674,0-21.138-2.292-21.138-5.119
						s9.464-5.119,21.138-5.119C576.96,410.791,586.423,413.083,586.423,415.91z"/>
					<path style="fill:#FFE3B8;" d="M582.193,415.91c0,1.735-7.57,3.141-16.908,3.141c-9.338,0-16.908-1.406-16.908-3.141
						c0-1.735,7.57-3.141,16.908-3.141C574.623,412.768,582.193,414.175,582.193,415.91z"/>
					<path style="fill:#FFFFFF;" d="M565.286,389.249l-21.138-1.166c0,16.678,7.149,27.827,15.289,27.827c4.588,0,5.645,0,5.849,0
						c0.204,0,1.26,0,5.849,0c8.14,0,15.289-11.148,15.289-27.827L565.286,389.249z"/>
					<path style="fill:#FFE3B8;" d="M586.423,388.083c0,1.979-9.464,3.583-21.138,3.583c-11.674,0-21.138-1.604-21.138-3.583
						c0-1.979,9.464-3.583,21.138-3.583C576.96,384.499,586.423,386.104,586.423,388.083z"/>
					<path style="fill:#A6834C;" d="M545.299,389.249c2.855,1.406,10.722,2.417,19.986,2.417c9.264,0,17.131-1.011,19.986-2.417
						c-2.855-1.406-10.722-2.417-19.986-2.417C556.021,386.832,548.155,387.843,545.299,389.249z"/>
				</g>
			</g>
			<g>
				<path style="fill:none;stroke:#FFFFFF;stroke-width:1.0217;stroke-miterlimit:10;" d="M576.526,381.98
					c-0.704-3.592,2.744-11.206,1.307-17.384"/>
				<path style="fill:none;stroke:#FFFFFF;stroke-width:1.0217;stroke-miterlimit:10;" d="M569.3,381.98
					c-0.704-3.592,2.744-11.206,1.307-17.384"/>
				<path style="fill:none;stroke:#FFFFFF;stroke-width:1.0217;stroke-miterlimit:10;" d="M562.076,381.98
					c-0.704-3.592,2.744-11.206,1.307-17.384"/>
				<path style="fill:none;stroke:#FFFFFF;stroke-width:1.0217;stroke-miterlimit:10;" d="M554.85,381.98
					c-0.704-3.592,2.744-11.206,1.307-17.384"/>
			</g>
		</g>
		<g>
			<polygon style="fill:#6A80F2;" points="356.37,386.334 247.941,386.334 226.11,429.029 334.539,429.029 			"/>
			<polygon style="fill:#354FCC;" points="355.443,384.49 246.251,384.49 224.423,427.496 333.615,427.496 			"/>
			<polygon style="fill:#262F57;" points="331.658,384.49 246.251,384.49 224.423,427.496 333.615,427.496 			"/>
			<g>
				
					<line style="fill:#FFF9F0;stroke:#9EAEFF;stroke-width:1.0217;stroke-miterlimit:10;" x1="343.934" y1="393.063" x2="317.785" y2="393.063"/>
				
					<line style="fill:#FFF9F0;stroke:#9EAEFF;stroke-width:1.0217;stroke-miterlimit:10;" x1="340.581" y1="399.528" x2="314.433" y2="399.528"/>
				
					<line style="fill:#FFF9F0;stroke:#9EAEFF;stroke-width:1.0217;stroke-miterlimit:10;" x1="337.229" y1="405.993" x2="311.08" y2="405.993"/>
			</g>
			<g>
				<polygon style="fill:#354FCC;" points="333.615,427.496 224.423,427.496 206.779,347.039 315.97,347.039 				"/>
				<path style="fill:none;stroke:#9EAEFF;stroke-width:1.4147;stroke-miterlimit:10;" d="M281.834,387.268
					c1.409,6.427-2.658,11.638-9.085,11.638c-6.427,0-12.78-5.21-14.19-11.638c-1.409-6.427,2.658-11.638,9.086-11.638
					C274.072,375.63,280.425,380.841,281.834,387.268z"/>
			</g>
			
				<line style="fill:#FFF9F0;stroke:#9EAEFF;stroke-width:1.0217;stroke-miterlimit:10;" x1="314.433" y1="350.487" x2="329.503" y2="424.24"/>
		</g>
	</g>
</g>
</svg>
