<?xml version="1.0" encoding="utf-8"?>
<!-- Generator: Adobe Illustrator 27.5.0, SVG Export Plug-In . SVG Version: 6.00 Build 0)  -->
<svg version="1.1" xmlns="http://www.w3.org/2000/svg" xmlns:xlink="http://www.w3.org/1999/xlink" x="0px" y="0px"
	 viewBox="0 0 750 500" style="enable-background:new 0 0 750 500;" xml:space="preserve">
<g id="BACKGROUND">
	<rect y="0.649" style="fill:#F4EBE4;" width="750" height="498.702"/>
</g>
<g id="OBJECTS">
	<g>
		<g>
			<path style="fill:#CFE8D7;" d="M409.893,435.097c-3.632-3.096-8.374-8.476-10.398-12.529c-2.313-4.63-4.465-9.608-5.577-14.679
				c-0.82-3.739-0.929-7.607-0.645-11.414c0.129-1.73,1.092-7.325,1.771-9.631c7.395,11.516,14.563,23.319,13.553,37.601
				c-0.922-4.537,0.738-9.174,0.968-13.247c0.354-6.278,1.083-12.865,3.01-18.861c2.637-8.206,7.556-18.67,15.243-23.437
				c6.825,20.766-1.008,49.212-16.393,64.534L409.893,435.097z"/>
			<g>
				<path style="opacity:0.2;fill:#C1C1C1;" d="M427.818,368.9c-2.1,13.592-11.417,50.969-17.925,66.197l1.532-1.663
					C426.81,418.112,434.643,389.666,427.818,368.9z"/>
			</g>
			<g>
				<path style="opacity:0.2;fill:#C1C1C1;" d="M408.535,418.474c-0.999-11.673-7.154-21.76-13.492-31.63
					c0,0,7.024,34.024,14.849,48.253c0,0-0.401-8.988-1.241-17.469C408.611,417.91,408.572,418.191,408.535,418.474z"/>
			</g>
		</g>
		<g>
			<path style="fill:#CFE8D7;" d="M335.62,433.581c0.17-3.65-3.73-7.879-4.686-11.832c-1.296-5.366,1.879-8.596,4.987-12.646
				c3.655-4.763,10.096-12.38,9.262-18.969c-0.898-7.103-7.033-5.396-12.45-4.358c-4.462,0.853-10.727,3.58-12.26-2.246
				c-1.121-4.264,3.705-10.766,4.983-14.566c4.553-13.541-0.839-21.499-9.643-31.4c-6.892-7.753-9.03-12.281-8.808-22.854
				c0.216-10.265,0.631-22.61-4.077-32.066c-7.136-14.336-31.032-26.479-46.399-26.827c4.274,7.699,9.279,14.333,11.487,23.297
				c2.727,11.072-1.631,21.198-3.431,32.084c-2.787,16.854,4.026,27.197,16.708,37.014c11.27,8.724,17.22,16.052,16.458,30.881
				c-0.407,7.942-1.509,14.904,4.637,21.004c3.984,3.954,9.407,6.496,14.053,9.649c9.544,6.479,14.967,15.823,16.3,27.436
				L335.62,433.581z"/>
			<g>
				<path style="opacity:0.2;fill:#C1C1C1;" d="M288.296,318.439c2.35,23.984,17.681,32.32,19.196,48.289
					c1.516,15.971,3.388,27.603,14.439,29.938c11.051,2.334,2.83,13.953,7.005,23.847c4.175,9.894,5.226,14.892,5.226,14.892
					l0.001-0.001l1.456-1.822c0.17-3.65-3.73-7.879-4.686-11.832c-1.296-5.366,1.879-8.596,4.987-12.646
					c3.655-4.763,10.096-12.38,9.262-18.969c-0.898-7.103-7.033-5.396-12.45-4.358c-4.462,0.853-10.727,3.58-12.26-2.246
					c-1.121-4.264,3.705-10.766,4.983-14.566c4.553-13.541-0.839-21.499-9.643-31.4c-6.892-7.753-9.03-12.281-8.808-22.854
					c0.216-10.265,0.631-22.61-4.077-32.066c-7.136-14.336-31.032-26.479-46.399-26.827
					C281.569,273.403,285.946,294.456,288.296,318.439z"/>
			</g>
		</g>
	</g>
	<g>
		<path style="fill:#275389;" d="M495.675,80.107V74.15c0-0.553-0.367-1.039-0.899-1.192l-3.114-0.891
			c-0.399-0.114-0.705-0.424-0.834-0.819c-0.308-0.947-0.687-1.861-1.133-2.737c-0.189-0.37-0.191-0.805,0.011-1.168l1.571-2.831
			c0.268-0.484,0.184-1.087-0.207-1.478l-4.212-4.212c-0.391-0.391-0.994-0.476-1.478-0.207l-2.831,1.571
			c-0.363,0.202-0.798,0.199-1.168,0.011c-0.875-0.446-1.79-0.825-2.737-1.133c-0.395-0.128-0.705-0.434-0.82-0.834l-0.891-3.114
			c-0.152-0.532-0.638-0.898-1.192-0.898h-5.956c-0.553,0-1.039,0.367-1.192,0.898l-0.891,3.114
			c-0.114,0.399-0.424,0.705-0.819,0.834c-0.947,0.308-1.862,0.687-2.737,1.133c-0.37,0.188-0.805,0.191-1.168-0.011l-2.831-1.571
			c-0.484-0.268-1.087-0.184-1.478,0.207l-4.212,4.212c-0.391,0.391-0.476,0.994-0.207,1.478l1.571,2.831
			c0.202,0.363,0.199,0.798,0.011,1.168c-0.446,0.875-0.825,1.79-1.133,2.737c-0.128,0.395-0.435,0.705-0.834,0.819l-3.114,0.891
			c-0.532,0.152-0.899,0.638-0.899,1.192v5.956c0,0.553,0.367,1.04,0.899,1.192l3.114,0.891c0.399,0.114,0.705,0.424,0.834,0.819
			c0.308,0.947,0.687,1.862,1.133,2.737c0.189,0.37,0.191,0.805-0.011,1.168l-1.571,2.831c-0.268,0.484-0.184,1.087,0.207,1.478
			l4.212,4.212c0.391,0.391,0.994,0.476,1.478,0.207l2.831-1.571c0.363-0.201,0.798-0.199,1.168-0.01
			c0.875,0.446,1.79,0.825,2.737,1.132c0.395,0.128,0.705,0.435,0.819,0.834l0.891,3.114c0.152,0.532,0.638,0.899,1.192,0.899h5.956
			c0.553,0,1.039-0.367,1.192-0.899l0.891-3.114c0.114-0.399,0.425-0.705,0.82-0.834c0.947-0.308,1.861-0.687,2.737-1.132
			c0.37-0.189,0.805-0.191,1.168,0.01l2.831,1.571c0.484,0.268,1.087,0.184,1.478-0.207l4.212-4.212
			c0.391-0.391,0.476-0.994,0.207-1.478l-1.571-2.831c-0.202-0.363-0.199-0.798-0.011-1.168c0.446-0.875,0.825-1.79,1.133-2.737
			c0.128-0.395,0.435-0.705,0.834-0.819l3.114-0.891C495.309,81.146,495.675,80.66,495.675,80.107z M474.362,85.131
			c-5.745,1.089-10.688-3.854-9.599-9.599c0.608-3.21,3.197-5.798,6.406-6.407c5.745-1.089,10.688,3.854,9.599,9.599
			C480.16,81.934,477.571,84.523,474.362,85.131z"/>
		<g>
			<path style="fill:#275389;" d="M535.81,59.176c-18.468,0-33.44,14.972-33.44,33.44s14.971,33.44,33.44,33.44
				c18.469,0,33.44-14.972,33.44-33.44S554.278,59.176,535.81,59.176z M535.81,114.327c-11.991,0-21.711-9.72-21.711-21.711
				s9.72-21.711,21.711-21.711c11.991,0,21.711,9.72,21.711,21.711S547.8,114.327,535.81,114.327z"/>
			<path style="fill:#275389;" d="M541.3,65.871h-10.981c-2.241,0-3.894-2.093-3.375-4.273l1.536-6.45
				c0.372-1.563,1.768-2.666,3.375-2.666h7.908c1.606,0,3.003,1.103,3.375,2.666l1.536,6.45
				C545.194,63.778,543.541,65.871,541.3,65.871z"/>
			<path style="fill:#275389;" d="M530.319,119.362H541.3c2.241,0,3.894,2.093,3.375,4.273l-1.536,6.45
				c-0.372,1.563-1.768,2.665-3.375,2.665h-7.908c-1.606,0-3.003-1.103-3.375-2.665l-1.536-6.45
				C526.425,121.455,528.078,119.362,530.319,119.362z"/>
			<path style="fill:#275389;" d="M520.78,69.822l-7.764,7.765c-1.585,1.585-4.234,1.274-5.408-0.635l-3.474-5.647
				c-0.842-1.368-0.634-3.135,0.502-4.271l5.592-5.592c1.136-1.136,2.903-1.343,4.271-0.502l5.647,3.474
				C522.053,65.589,522.365,68.237,520.78,69.822z"/>
			<path style="fill:#275389;" d="M550.839,115.411l7.765-7.764c1.585-1.585,4.234-1.274,5.408,0.635l3.474,5.647
				c0.842,1.368,0.634,3.135-0.502,4.271l-5.592,5.592c-1.136,1.136-2.903,1.343-4.271,0.502l-5.647-3.474
				C549.566,119.644,549.255,116.995,550.839,115.411z"/>
			<path style="fill:#275389;" d="M509.064,87.126v10.981c0,2.241-2.093,3.894-4.273,3.375l-6.45-1.536
				c-1.563-0.372-2.665-1.769-2.665-3.375v-7.908c0-1.606,1.103-3.003,2.665-3.375l6.45-1.536
				C506.971,83.232,509.064,84.885,509.064,87.126z"/>
			<path style="fill:#275389;" d="M562.555,98.107V87.126c0-2.241,2.093-3.894,4.273-3.375l6.45,1.536
				c1.563,0.372,2.666,1.769,2.666,3.375v7.908c0,1.606-1.103,3.003-2.666,3.375l-6.45,1.536
				C564.648,102.001,562.555,100.348,562.555,98.107z"/>
			<path style="fill:#275389;" d="M513.015,107.646l7.764,7.764c1.585,1.585,1.274,4.234-0.635,5.408l-5.647,3.474
				c-1.368,0.842-3.135,0.634-4.271-0.502l-5.592-5.592c-1.136-1.136-1.344-2.903-0.502-4.271l3.474-5.647
				C508.782,106.373,511.431,106.062,513.015,107.646z"/>
			<path style="fill:#275389;" d="M558.604,77.587l-7.765-7.765c-1.585-1.585-1.274-4.234,0.635-5.408l5.647-3.474
				c1.368-0.842,3.135-0.634,4.271,0.502l5.592,5.592c1.136,1.136,1.344,2.903,0.502,4.271l-3.474,5.647
				C562.838,78.86,560.189,79.171,558.604,77.587z"/>
		</g>
		<g>
			<path style="fill:#275389;" d="M124.006,168.978c-19.909,0-36.048,16.139-36.048,36.048s16.139,36.048,36.048,36.048
				c19.909,0,36.048-16.139,36.048-36.048S143.915,168.978,124.006,168.978z M124.006,228.429
				c-12.926,0-23.404-10.478-23.404-23.404c0-12.926,10.478-23.404,23.404-23.404c12.926,0,23.404,10.478,23.404,23.404
				C147.41,217.951,136.932,228.429,124.006,228.429z"/>
			<path style="fill:#275389;" d="M129.925,176.194h-11.837c-2.416,0-4.198-2.256-3.638-4.606l1.656-6.953
				c0.401-1.685,1.907-2.873,3.638-2.873h8.525c1.732,0,3.237,1.189,3.638,2.873l1.656,6.953
				C134.123,173.938,132.341,176.194,129.925,176.194z"/>
			<path style="fill:#275389;" d="M118.088,233.857h11.837c2.416,0,4.198,2.256,3.638,4.606l-1.656,6.953
				c-0.401,1.685-1.906,2.873-3.638,2.873h-8.525c-1.732,0-3.237-1.189-3.638-2.873l-1.656-6.953
				C113.89,236.113,115.672,233.857,118.088,233.857z"/>
			<path style="fill:#275389;" d="M107.804,180.453l-8.37,8.37c-1.708,1.708-4.564,1.373-5.83-0.685l-3.745-6.087
				c-0.908-1.475-0.684-3.38,0.541-4.604l6.028-6.028c1.224-1.224,3.129-1.448,4.604-0.541l6.087,3.745
				C109.177,175.89,109.513,178.745,107.804,180.453z"/>
			<path style="fill:#275389;" d="M140.208,229.597l8.37-8.37c1.708-1.708,4.564-1.373,5.83,0.685l3.745,6.087
				c0.908,1.475,0.684,3.38-0.541,4.604l-6.028,6.028c-1.225,1.225-3.13,1.448-4.604,0.541l-6.087-3.745
				C138.835,234.161,138.5,231.306,140.208,229.597z"/>
			<path style="fill:#275389;" d="M95.175,199.107v11.837c0,2.416-2.256,4.198-4.606,3.638l-6.953-1.656
				c-1.685-0.401-2.873-1.906-2.873-3.638v-8.525c0-1.732,1.189-3.237,2.873-3.638l6.953-1.656
				C92.919,194.909,95.175,196.691,95.175,199.107z"/>
			<path style="fill:#275389;" d="M152.838,210.944v-11.837c0-2.416,2.256-4.198,4.606-3.638l6.953,1.656
				c1.685,0.401,2.873,1.907,2.873,3.638v8.525c0,1.732-1.189,3.237-2.873,3.638l-6.953,1.656
				C155.094,215.142,152.838,213.36,152.838,210.944z"/>
			<path style="fill:#275389;" d="M99.434,221.227l8.37,8.37c1.708,1.708,1.373,4.564-0.685,5.83l-6.087,3.745
				c-1.475,0.908-3.38,0.684-4.604-0.541l-6.028-6.028c-1.225-1.225-1.448-3.13-0.541-4.604l3.745-6.087
				C94.871,219.854,97.726,219.519,99.434,221.227z"/>
			<path style="fill:#275389;" d="M148.578,188.823l-8.37-8.37c-1.708-1.708-1.373-4.564,0.685-5.83l6.087-3.745
				c1.475-0.908,3.38-0.684,4.604,0.541l6.028,6.028c1.224,1.224,1.448,3.129,0.541,4.604l-3.745,6.087
				C153.142,190.196,150.287,190.532,148.578,188.823z"/>
		</g>
	</g>
	<g>
		<path style="fill:#F2A755;" d="M264.894,76.214c-6.487-13.067-22.498-18.269-35.467-11.377
			c-11.702,6.219-16.882,20.567-11.813,32.811c2.611,6.307,7.348,10.983,12.987,13.622c6.677,3.125,12.185,8.292,15.463,14.895
			l1.205,2.426l23.479-11.655l0,0c-3.795-7.645-5.01-16.303-3.533-24.71C268.139,86.963,267.453,81.368,264.894,76.214z"/>
		
			<rect x="247.336" y="122.269" transform="matrix(0.8957 -0.4446 0.4446 0.8957 -29.2432 129.3507)" style="fill:#C6BBAB;" width="27.561" height="9.489"/>
		
			<rect x="258.315" y="138.413" transform="matrix(0.8957 -0.4446 0.4446 0.8957 -35.2852 134.349)" style="fill:#C6BBAB;" width="20.873" height="7.96"/>
		
			<rect x="248.875" y="128.123" transform="matrix(0.8047 -0.5937 0.5937 0.8047 -25.9499 181.3385)" style="fill:#C6BBAB;" width="27.561" height="3.98"/>
		
			<rect x="250.527" y="131.45" transform="matrix(0.8047 -0.5937 0.5937 0.8047 -27.6028 182.9691)" style="fill:#C6BBAB;" width="27.561" height="3.98"/>
		
			<rect x="252.179" y="134.778" transform="matrix(0.8047 -0.5937 0.5937 0.8047 -29.2557 184.6004)" style="fill:#C6BBAB;" width="27.561" height="3.98"/>
		
			<rect x="253.831" y="138.106" transform="matrix(0.8047 -0.5937 0.5937 0.8047 -30.9087 186.231)" style="fill:#C6BBAB;" width="27.561" height="3.98"/>
		
			<line style="fill:none;stroke:#000000;stroke-width:0.5;stroke-miterlimit:10;" x1="257.703" y1="149.878" x2="279.882" y2="133.516"/>
		
			<line style="fill:none;stroke:#000000;stroke-width:0.5;stroke-miterlimit:10;" x1="255.341" y1="146.675" x2="278.23" y2="130.188"/>
		
			<line style="fill:none;stroke:#000000;stroke-width:0.5;stroke-miterlimit:10;" x1="253.689" y1="143.348" x2="276.578" y2="126.861"/>
		
			<line style="fill:none;stroke:#000000;stroke-width:0.5;stroke-miterlimit:10;" x1="252.037" y1="140.02" x2="274.926" y2="123.533"/>
		
			<line style="fill:none;stroke:#000000;stroke-width:0.5;stroke-miterlimit:10;" x1="250.385" y1="136.692" x2="273.046" y2="120.053"/>
		
			<line style="fill:none;stroke:#FFF1CF;stroke-width:0.5;stroke-miterlimit:10;" x1="235.64" y1="96.201" x2="252.653" y2="125.916"/>
		
			<line style="fill:none;stroke:#FFF1CF;stroke-width:0.5;stroke-miterlimit:10;" x1="265.239" y1="119.67" x2="253.156" y2="87.506"/>
		<path style="fill:none;stroke:#FFF1CF;stroke-width:0.5;stroke-miterlimit:10;" d="M233.005,101.856
			c2.508-0.413,4.811-1.941,6.166-4.091c1.355-2.15,1.739-4.887,1.028-7.328c-0.087-0.3-0.198-0.607-0.422-0.823
			c-0.61-0.587-1.67-0.169-2.201,0.491c-1.244,1.545-0.789,4.002,0.632,5.386c1.421,1.384,3.535,1.839,5.516,1.73
			c2.82-0.154,5.732-1.509,7.024-4.02c1.084-2.107,0.814-4.838-0.661-6.692c-0.134-0.169-0.283-0.335-0.477-0.431
			c-0.275-0.136-0.605-0.11-0.896-0.015c-0.884,0.291-1.48,1.198-1.562,2.126c-0.082,0.927,0.286,1.853,0.845,2.597
			c1.563,2.078,4.47,2.763,7.038,2.357c2.568-0.406,4.891-1.716,7.151-3.003"/>
	</g>
	<g>
		<path style="fill:#FFFFFF;" d="M158.131,110.899c-0.942-2.942-3.697-5.074-6.952-5.074c-0.948,0-1.851,0.186-2.682,0.515
			c-0.986-10.262-9.628-18.288-20.149-18.288c-7.734,0-14.45,4.339-17.86,10.713c-2.061-1.619-4.653-2.592-7.477-2.592
			c-6.698,0-12.127,5.429-12.127,12.127c0,0.893,0.103,1.761,0.286,2.599H158.131z"/>
		<path style="fill:#FFFFFF;" d="M186.783,73.615c-0.517-1.616-2.031-2.787-3.818-2.787c-0.521,0-1.017,0.102-1.473,0.283
			c-0.542-5.636-5.288-10.044-11.066-10.044c-4.248,0-7.936,2.383-9.809,5.884c-1.132-0.889-2.555-1.424-4.106-1.424
			c-3.678,0-6.66,2.982-6.66,6.66c0,0.491,0.057,0.967,0.157,1.427H186.783z"/>
		<path style="fill:#FFFFFF;" d="M653.953,92.951c-0.575-1.795-2.255-3.095-4.241-3.095c-0.578,0-1.129,0.114-1.636,0.314
			c-0.602-6.26-5.873-11.155-12.29-11.155c-4.717,0-8.814,2.647-10.894,6.534c-1.257-0.987-2.838-1.581-4.56-1.581
			c-4.085,0-7.397,3.312-7.397,7.397c0,0.545,0.063,1.074,0.175,1.585H653.953z"/>
	</g>
	<g>
		
			<line style="fill:none;stroke:#000000;stroke-width:0.5;stroke-miterlimit:10;" x1="581.006" y1="414.277" x2="678.708" y2="414.277"/>
		
			<line style="fill:none;stroke:#000000;stroke-width:0.5;stroke-miterlimit:10;" x1="636.455" y1="416.543" x2="665.091" y2="416.543"/>
		<path style="fill:#FFFFFF;" d="M596.545,396.984c0,0,0.059,15.429-1.595,22.216c-1.656,6.786,17.072,8.103,17.664,3.552
			c0.627-4.804,0.011-24.561,0.165-26.305L596.545,396.984z"/>
		<path style="fill:#FFFFFF;" d="M636.116,396.155c0,0,0.183,9.015,0.189,16.215c0.001,1.101-0.995,4.296-1.003,5.275
			c-0.017,1.808,0.942,1.203,0.88,2.21c-0.315,5.106,12.531,1.678,12.74,0c0.059-0.48,1.139-0.176,1.276-2.527
			c0.053-0.931-0.84-3.981-0.789-5.076c0.269-5.805,0.435-13.37-0.143-17.135L636.116,396.155z"/>
		<path style="fill:#0A1D35;" d="M634.698,419.503c-0.186,6.397-6.461,9.46-6.216,14.351c0.045,0.942,0.01,2.859,0.558,3.615
			c1.647,2.254,5.57,2.533,8.798,2.525c4.648-0.01,9.428-0.348,13.009-1.76c5.992-2.359-0.066-13.612-0.396-18.968
			C650.172,414.753,634.886,413.102,634.698,419.503z"/>
		<path style="fill:#0A1D35;" d="M613.735,419.664c0.052,0.842,0.092,1.867,0.055,2.555c-0.052,0.943,0.466,7.221,0.63,11.019
			c0.074,1.724-0.204,2.614-2.249,2.848c-6.145,0.701-22.817,1.197-26.675,1.197c-4.697,0-9.162-0.318-10.062-2.152
			c-0.654-1.324-1.244-3.7,0.059-5.609c1.391-2.036,4.846-3.608,9.624-5.083c4.636-1.436,4.116-2.581,5.859-6.26
			c0.923-1.948,4.583-1.836,10.044-1.294c1.336,0.133,2.354,4.585,5.016,4.82c3.522,0.311,5.729-1.363,6.803-2.515
			C613.374,418.618,613.686,418.836,613.735,419.664z"/>
		<g>
			
				<path style="fill:#FFFFFF;stroke:#FFFFFF;stroke-width:0.5;stroke-linecap:round;stroke-linejoin:round;stroke-miterlimit:10;" d="
				M608.143,432.434c0,0-0.6-4.357-5.501-4.357s-5.771,4.249-5.771,4.249s-4.957,0.271-9.967,0.435
				c-4.632,0.15-12.262-0.529-11.95-2.087c-0.515,1.637-0.046,3.388,0.48,4.456c0.9,1.835,5.365,2.152,10.062,2.152
				c3.858,0,20.53-0.495,26.675-1.197c2.045-0.234,2.323-1.124,2.249-2.848c-0.034-0.768-0.08-1.639-0.134-2.546
				C614.385,432.317,608.143,432.434,608.143,432.434z"/>
		</g>
		<g>
			
				<path style="fill:#FFFFFF;stroke:#FFFFFF;stroke-width:0.5;stroke-linecap:round;stroke-linejoin:round;stroke-miterlimit:10;" d="
				M642.482,433.914c-5.395,0.563-13.961-0.056-13.769-1.947c-0.172,0.606-0.264,1.229-0.231,1.887
				c0.045,0.942,0.01,2.859,0.558,3.615c1.647,2.254,5.57,2.533,8.798,2.525c4.648-0.01,9.428-0.348,13.009-1.76
				c2.928-1.153,2.972-4.433,2.221-8.108C653.255,431.21,647.692,433.371,642.482,433.914z"/>
		</g>
		<path style="fill:#F2A755;" d="M589.723,192.479c5.299-6.836,20.901-11.011,20.901-11.011v4.473c0,0,4.695,3.732,5.294,4.18
			c0.6,0.448,14.255-4.348,13.857-7.022c-0.177-1.191-0.324-2.096-0.324-2.096l17.465,8.318l-1.141,28.266
			c0,0,0.547,42.991,1.89,46.872c0,0-1.691,1.293-1.29,9.197c0.321,6.327-22.138,4.39-26.819,4.39
			c-4.681,0-27.921,0.781-27.497-4.462c0.424-5.243,0.546-7.184,0.546-7.184l-1.166-6.717l2.239-46.573L589.723,192.479z"/>
		<path style="fill:#FFAF99;" d="M612.779,396.446c0,0,2.106-36.226-0.78-39.788c-2.886-3.563-14.885,1.643-14.885,1.643
			l-0.568,38.682l10.629,1.566L612.779,396.446z"/>
		<path style="fill:#FFAF99;" d="M636.116,396.155l-3.775-37.853c0,0,13.754-7.165,15.535,0c1.781,7.165,1.391,36.815,1.391,36.815
			l-8.287,3.296L636.116,396.155z"/>
		<path style="fill:#F2A755;" d="M629.775,183.099l-7.061,4.685l-5.448,0.093l-3.253-8.104l-5.039,2.521l-3.464,36.993
			c0,0-16.378,48.726-8.855,53.263c7.52,4.534,34.999,5.283,39.164,1.033C639.984,269.332,629.775,183.099,629.775,183.099z"/>
		<path style="fill:#0A1D35;" d="M621.119,311.835c1.594,15.186,12.642,98.285,12.647,100.265
			c0.006,2.769,16.925,0.783,16.971-1.303c0.73-33.943-3.491-106.144-4.361-137.141c0,0-22,6.328-54.316-0.072
			c-0.947,6.547,2.028,62.626,2.407,75.041c0.09,2.927,0.054,58.508,0.106,63.186c0.027,2.432,18.329,2.173,18.329-2.843
			s3.368-67.661,3.368-67.661l2.425-29.118L621.119,311.835z"/>
		<path style="fill:#FFAF99;" d="M653.268,287.142c-4.156,3.677-2.967,8.54-3.445,11.804c-0.325,2.222-1.584,4.717,0.303,3.993
			c3.383-1.3,2.852-6.896,2.852-6.896s1.108,0.536,1.284,1.96c0.308,2.467-2.633,7.562-2.975,10.013
			c-0.362,2.613,5.034,0.394,7.163-2.511c3.94-4.963,3.944-13.689,3.936-14.493c-0.021-1.742,0.005-6.676,0.005-6.676l-9.702-6.292
			C652.69,278.045,653.92,286.527,653.268,287.142z"/>
		<path style="fill:#F2A755;" d="M646.916,189.321c5.37,2.845,10.653,12.749,11.844,28.722c0.921,12.31,4.981,43.298,5.219,60.064
			c0.008,0.699-1.193,1.83-1.184,2.47c0.042,3.916,0.107,4.066,0.019,5.004c-0.254,2.751-11.124,1.839-11.124-0.842
			c0-0.812-0.191-3.149-0.503-6.444c-0.068-0.697-0.897-1.073-0.975-1.857c-1.588-16.131-6.285-53.167-6.285-53.167"/>
		<path style="fill:#E88379;" d="M604.921,161.609c0.332,2.502,2.273,5.707,4.13,4.743c1.495-0.783,2.756-2.082,2.426-4.583
			c-0.334-2.503-1.644-3.728-3.629-4.129C605.704,157.209,604.589,159.107,604.921,161.609z"/>
		<path style="fill:#FFAF99;" d="M605.51,158.448c0.399-0.494,2.547-0.763,3.169,1.119l-0.233-1.774c0,0-0.687-0.324-1.509-0.193
			C605.873,157.77,605.51,158.448,605.51,158.448z"/>
		<path style="fill:#E88379;" d="M637.201,161.609c-0.33,2.502-2.272,5.707-4.13,4.743c-1.495-0.783-2.757-2.082-2.423-4.583
			c0.332-2.503,1.642-3.728,3.629-4.129C636.418,157.209,637.534,159.107,637.201,161.609z"/>
		<path style="fill:#FFAF99;" d="M636.614,158.448c-0.401-0.494-2.548-0.763-3.17,1.119l0.23-1.774c0,0,0.691-0.324,1.514-0.193
			C636.249,157.77,636.614,158.448,636.614,158.448z"/>
		<path style="fill:#FFAF99;" d="M629.295,171.464c-0.788,2.738,0.286,11.146,0.48,11.635c0,0-1.108,4.985-9.872,4.985
			c-5.267,0-6.677-2.644-6.94-3.519c-0.266-0.876,1.833-8.271,0.877-12.768L629.295,171.464z"/>
		<path style="fill:#E88379;" d="M629.053,173.08c0,0-0.12,0.965-0.015,2.625c0,0-4.475,5.298-7.671,5.298
			c-3.194,0-7.275-4.894-7.275-4.894s0.068-3.277-0.079-4.646L629.053,173.08z"/>
		<path style="fill:#FFAF99;" d="M608.445,154.613c0,6.966,5.647,12.612,12.61,12.612c6.966,0,12.612-5.646,12.612-12.612
			c0-9.349-5.647-13.845-12.612-13.845C614.092,140.768,608.445,145.461,608.445,154.613z"/>
		<path style="fill:#FFAF99;" d="M608.445,154.613c0,6.746,0,12.392,2.573,16.06c1.549,2.207,5.569,6.002,8.485,6.963
			c0.723,0.238,2.795,0.121,3.515-0.139c2.892-1.022,6.597-4.721,8.078-6.825c2.571-3.668,2.571-9.313,2.571-16.06"/>
		<path style="fill:#0A1D35;" d="M613.882,159.888c0,1.147,0.692,2.077,1.544,2.077c0.852,0,1.541-0.93,1.541-2.077
			c0-1.147-0.688-2.079-1.541-2.079C614.574,157.809,613.882,158.741,613.882,159.888z"/>
		<path style="fill:#0A1D35;" d="M624.992,159.888c0,1.147,0.69,2.077,1.545,2.077c0.851,0,1.543-0.93,1.543-2.077
			c0-1.147-0.692-2.079-1.543-2.079C625.683,157.809,624.992,158.741,624.992,159.888z"/>
		<g>
			<path style="fill:#0A1D35;" d="M616.918,155.486c-0.395,0.058-0.824,0.1-1.233,0.149c-0.412,0.059-0.825,0.083-1.232,0.155
				c-0.408,0.053-0.815,0.105-1.219,0.177c-0.41,0.048-0.809,0.133-1.233,0.173l-0.029,0.003c-0.292,0.027-0.551-0.188-0.578-0.48
				c-0.019-0.207,0.083-0.397,0.248-0.5c0.799-0.499,1.717-0.73,2.623-0.85c0.458-0.038,0.914-0.087,1.372-0.056
				c0.462,0.019,0.904,0.066,1.378,0.189c0.283,0.074,0.452,0.363,0.379,0.645c-0.055,0.212-0.231,0.36-0.434,0.39L616.918,155.486z
				"/>
		</g>
		<g>
			<path style="fill:#0A1D35;" d="M625.287,154.445c0.474-0.123,0.917-0.17,1.378-0.189c0.458-0.031,0.915,0.018,1.372,0.056
				c0.907,0.121,1.825,0.352,2.624,0.85c0.249,0.155,0.325,0.483,0.17,0.732c-0.11,0.176-0.306,0.266-0.5,0.248l-0.03-0.003
				c-0.424-0.039-0.823-0.125-1.233-0.173c-0.404-0.072-0.811-0.124-1.219-0.177c-0.406-0.072-0.819-0.096-1.232-0.155
				c-0.409-0.048-0.839-0.09-1.234-0.148l-0.042-0.006c-0.289-0.043-0.489-0.312-0.446-0.601
				C624.929,154.663,625.088,154.497,625.287,154.445z"/>
		</g>
		<path style="fill:#E88379;" d="M623.335,165.859c-0.806-0.383-3.717-0.412-4.404,0c-0.688,0.41,1.453,0.959,2.201,0.959
			C621.88,166.818,623.983,166.211,623.335,165.859z"/>
		<path style="fill:#0A1D35;" d="M632.817,160.936c0,0-0.798,3.475-2.806,4.555c-2.009,1.079-1.425,3.31-2.275,3.31
			c-0.302,0-0.562-0.734-1.198-0.975c-0.879-0.332-2.202-0.452-3.824-0.496c-0.524-0.013-1.007,0.779-1.585,0.779
			c-0.395,0-0.859-0.785-1.247-0.763c-1.9,0.103-3.646,0.457-4.751,0.976c-0.763,0.359-0.923,1.201-1.383,1.063
			c-1.263-0.371-0.837-3.294-1.875-4.037c-0.997-0.718-2.401-2.731-2.549-4.623c-0.005-0.071-0.01-0.144-0.013-0.216l-0.841,0.258
			c0,0-0.13,10.054,4.598,15.952c4.73,5.899,7.072,5.791,7.851,5.791c0.783,0,7.509-2.022,10.431-8.609
			c2.854-6.43,2.285-12.966,2.285-12.966H632.817z"/>
		<path style="fill:#E88379;" d="M625.662,169.896c-2.708,0.682-6.937,0.585-9.458,0.305c-0.314-0.036-0.433,0.015-0.028,0.187
			c0.709,0.295,2.808,2.39,4.698,2.39c1.887,0,4.273-2.335,4.893-2.721C626.028,169.894,625.908,169.834,625.662,169.896z"/>
		<path style="fill:#FFFFFF;" d="M615.953,170.196c-0.14,0.057,1.199,0.803,1.658,1.174c0.816,0.22,5.748,0.201,6.714-0.196
			c2.082-1.382,1.495-1.304,1.495-1.304S619.756,170.464,615.953,170.196z"/>
		<path style="fill:#0A1D35;" d="M621.058,146.135c1.792,0,3.3-0.76,5.194-1.23c3.383-0.839,5.013,2.795,5.013,2.795
			c1.943,3.187,1.526,13.172,1.551,13.751c0.027,0.574,0.801,0.651,0.817,0c0,0,1.011-6.703,1.395-10.737
			c1.637-17.226-19.385-12.711-24.276-18.478c-0.8-0.944-1.747-0.66-2.092-0.049c-2.563,4.523-3.704,10.184-2.992,16.863
			c0.463,4.37,2.801,10.916,2.801,12.229c0,0.754,0.844,0.656,0.844-0.029c0-1.063-0.625-11.773,1.678-14.502
			C614.868,142.156,619.321,146.135,621.058,146.135z"/>
		<path style="fill:#E88379;" d="M652.694,287.7c0,0,3.995,3.43,9.684,1.34l0.013-2.704c0,0-4.849,1.69-8.948,0.072L652.694,287.7z"
			/>
		<path style="fill:#E2E2E2;" d="M591.577,256.807c0,0,12.999,1.48,16.283,1.58l1.333-1.69c0,0,10.708,0.798,13.096,0
			c2.388-0.798,4.777-2.19,4.777-2.19l19.116,0.903l-42.103-4.204l-12.331,2.069L591.577,256.807z"/>
		<path style="fill:#F2A755;" d="M595.558,214.382l-10.006,19.976c0,0,7.744,4.918,15.94,6.939c0.673,0.165,1.592,1.641,2.241,1.799
			c2.708,0.671,5.156,1.285,6.904,1.734c2.262,0.497-0.203,11.411-2.313,11.102c-0.641-0.082-3.15-0.549-6.538-1.25
			c-0.535-0.11-1.729,0.957-2.306,0.835c-9.146-1.932-29.03-10.105-30.305-15.689c-1.089-4.763,18.175-46.495,21.825-48.789
			C593.74,189.323,595.558,214.382,595.558,214.382z"/>
		<g>
			<polygon style="fill:#C1C1C1;" points="590.535,232.976 590.675,232.349 639.25,237.201 648.58,255.008 598.877,250.043 			"/>
			<polygon style="fill:#EDEDED;" points="598.877,250.043 599.793,250.778 648.231,255.614 648.58,255.008 649.875,220.745 
				600.169,215.783 			"/>
			<polygon style="fill:#FFFFFF;" points="590.675,232.349 598.634,247.812 591.125,232.644 598.851,233.164 			"/>
			<path style="fill:#FFFFFF;" d="M621.216,236.471c-0.41,2.633,1.059,5.209,3.276,5.752c2.222,0.545,4.351-1.153,4.759-3.784
				c0.406-2.63-1.06-5.208-3.278-5.75C623.754,232.146,621.623,233.841,621.216,236.471z"/>
		</g>
		<path style="fill:#FFAF99;" d="M609.193,255.485c0,0,10.492,0.324,11.955,0.13c4.551-0.607,7.375-4.831,6.372-7.12
			c-0.871-1.985-10.755-2.209-12.404,0.141c-0.884,1.268-1.103,3.562-1.103,3.562l-3.191-0.318
			C610.822,251.879,610.119,254.26,609.193,255.485z"/>
		<polygon style="fill:#E2E2E2;" points="593.412,218.667 595.558,214.382 593.902,232.671 592.742,232.587 		"/>
	</g>
	<g>
		
			<line style="fill:none;stroke:#000000;stroke-width:0.5;stroke-miterlimit:10;" x1="272.966" y1="436.456" x2="458.044" y2="436.456"/>
		<polygon style="fill:#F48053;" points="407.717,437.374 329.219,437.374 336.806,371.995 400.13,371.995 		"/>
		<polygon style="fill:#E25F37;" points="391.063,373.919 395.488,437.374 391.063,437.374 389.253,373.919 		"/>
		<polygon style="fill:#E25F37;" points="385.54,397.292 385.54,437.374 382.925,437.374 		"/>
		<polygon style="fill:#E25F37;" points="352.328,437.374 360.621,437.374 356.83,362.475 		"/>
		<polygon style="fill:#E25F37;" points="349.515,437.374 350.052,394.318 346.158,437.374 		"/>
		<polygon style="fill:#E25F37;" points="332.211,437.374 334.054,427.298 334.794,437.374 		"/>
		<polygon style="fill:#E25F37;" points="397.942,437.374 397.942,429.999 400.654,437.374 		"/>
		<g>
			<path style="fill:#FFFFFF;" d="M352.056,411.359c-0.562-1.755-2.205-3.026-4.146-3.026c-0.566,0-1.104,0.111-1.6,0.307
				c-0.588-6.12-5.741-10.906-12.015-10.906c-4.612,0-8.617,2.588-10.65,6.388c-1.229-0.965-2.775-1.546-4.459-1.546
				c-3.994,0-7.232,3.238-7.232,7.232c0,0.533,0.061,1.05,0.171,1.55H352.056z"/>
			<path style="fill:#FFFFFF;" d="M344.847,444.186c-0.562-1.755-2.205-3.026-4.146-3.026c-0.565,0-1.104,0.111-1.6,0.307
				c-0.588-6.12-5.741-10.906-12.015-10.906c-4.612,0-8.617,2.588-10.65,6.388c-1.229-0.965-2.775-1.546-4.459-1.546
				c-3.994,0-7.232,3.238-7.232,7.232c0,0.533,0.061,1.05,0.171,1.549H344.847z"/>
			<path style="fill:#FFFFFF;" d="M422.698,443.565c-0.51-1.595-2.004-2.75-3.768-2.75c-0.514,0-1.003,0.101-1.454,0.279
				c-0.535-5.562-5.218-9.912-10.92-9.912c-4.192,0-7.832,2.352-9.68,5.806c-1.117-0.877-2.522-1.405-4.052-1.405
				c-3.63,0-6.573,2.943-6.573,6.573c0,0.484,0.056,0.954,0.155,1.408H422.698z"/>
			<path style="fill:#FFFFFF;" d="M340.57,449.449c0.562-1.755,2.205-3.026,4.146-3.026c0.565,0,1.104,0.111,1.6,0.307
				c0.588-6.12,5.741-10.906,12.015-10.906c4.612,0,8.617,2.588,10.65,6.388c1.229-0.965,2.775-1.546,4.459-1.546
				c3.994,0,7.232,3.238,7.232,7.232c0,0.533-0.061,1.05-0.171,1.55H340.57z"/>
			<path style="fill:#FFFFFF;" d="M358.303,439.426c-0.365-1.142-1.434-1.969-2.697-1.969c-0.368,0-0.718,0.072-1.041,0.2
				c-0.383-3.982-3.736-7.096-7.818-7.096c-3.001,0-5.607,1.684-6.93,4.157c-0.8-0.628-1.805-1.006-2.901-1.006
				c-2.599,0-4.705,2.107-4.705,4.705c0,0.346,0.04,0.683,0.111,1.008H358.303z"/>
			<path style="fill:#FFFFFF;" d="M399.298,438.864c-0.366-1.142-1.435-1.969-2.698-1.969c-0.368,0-0.718,0.072-1.041,0.2
				c-0.383-3.982-3.736-7.096-7.818-7.096c-3.001,0-5.607,1.684-6.93,4.157c-0.8-0.628-1.805-1.006-2.901-1.006
				c-2.599,0-4.705,2.107-4.705,4.705c0,0.346,0.04,0.683,0.111,1.008H399.298z"/>
			<path style="fill:#FFFFFF;" d="M378.791,438.864c-0.271-0.847-1.064-1.461-2.002-1.461c-0.273,0-0.533,0.054-0.772,0.148
				c-0.284-2.954-2.772-5.265-5.801-5.265c-2.227,0-4.16,1.249-5.142,3.084c-0.593-0.466-1.34-0.746-2.153-0.746
				c-1.928,0-3.491,1.563-3.491,3.491c0,0.257,0.03,0.507,0.082,0.748H378.791z"/>
			<path style="fill:#FFFFFF;" d="M435.22,445.926c-0.271-0.847-1.064-1.461-2.002-1.461c-0.273,0-0.533,0.054-0.772,0.148
				c-0.284-2.954-2.772-5.265-5.801-5.265c-2.227,0-4.16,1.249-5.142,3.084c-0.593-0.466-1.34-0.746-2.153-0.746
				c-1.928,0-3.491,1.563-3.491,3.491c0,0.257,0.03,0.507,0.082,0.748H435.22z"/>
			<path style="fill:#FFFFFF;" d="M416.953,398.079c-0.463-1.445-1.816-2.492-3.415-2.492c-0.466,0-0.909,0.092-1.318,0.253
				c-0.484-5.041-4.729-8.983-9.897-8.983c-3.799,0-7.098,2.131-8.773,5.262c-1.012-0.795-2.286-1.273-3.673-1.273
				c-3.29,0-5.957,2.667-5.957,5.957c0,0.439,0.051,0.865,0.141,1.276H416.953z"/>
			<path style="fill:#FFFFFF;" d="M350.957,422.26c0.264-0.826,1.038-1.424,1.952-1.424c0.266,0,0.52,0.052,0.753,0.145
				c0.277-2.881,2.703-5.134,5.657-5.134c2.171,0,4.057,1.218,5.014,3.008c0.579-0.454,1.306-0.728,2.099-0.728
				c1.88,0,3.405,1.524,3.405,3.405c0,0.251-0.029,0.494-0.08,0.73H350.957z"/>
			<circle style="fill:#FFFFFF;" cx="382.5" cy="403.1" r="1.102"/>
			<circle style="fill:#FFFFFF;" cx="354.235" cy="405.646" r="1.93"/>
			<path style="fill:#FFFFFF;" d="M343.617,417.333c0,0.544-0.441,0.985-0.985,0.985c-0.544,0-0.985-0.441-0.985-0.985
				c0-0.544,0.441-0.985,0.985-0.985C343.176,416.348,343.617,416.789,343.617,417.333z"/>
			<path style="fill:#FFFFFF;" d="M372.476,426.512c0,0.435-0.352,0.787-0.787,0.787c-0.435,0-0.787-0.352-0.787-0.787
				c0-0.434,0.352-0.787,0.787-0.787C372.124,425.725,372.476,426.077,372.476,426.512z"/>
			<path style="fill:#FFFFFF;" d="M406.959,406.314c0,1.572-1.274,2.846-2.846,2.846s-2.846-1.274-2.846-2.846
				s1.274-2.846,2.846-2.846S406.959,404.742,406.959,406.314z"/>
		</g>
		<path style="fill:#F4DBB8;" d="M392.318,330.412h-49.612c-3.087,0-5.62-2.444-5.73-5.529l-15.401-150.643
			c-1.103-30.765,8.057-61.022,26.039-86.01l15.034-20.892c2.391-3.323,7.337-3.323,9.728,0l15.034,20.892
			c17.981,24.987,27.141,55.245,26.038,86.01l-15.401,150.643C397.938,327.969,395.405,330.412,392.318,330.412z"/>
		<g>
			<path style="fill:#F48053;" d="M397.177,103.923c-2.893-5.417-6.148-10.663-9.766-15.692l-15.034-20.892
				c-2.391-3.323-7.337-3.323-9.728,0l-15.034,20.892c-3.631,5.045-6.895,10.308-9.794,15.744
				C344.041,93.683,392.19,94.3,397.177,103.923z"/>
		</g>
		<path style="fill:none;stroke:#000000;stroke-width:0.75;stroke-miterlimit:10;" d="M337.789,104.021
			c6.124-10.376,54.732-9.733,59.444,0"/>
		<path style="fill:none;stroke:#000000;stroke-width:0.75;stroke-miterlimit:10;" d="M377.812,96.993
			c11.807,19.974,12.701,63.783,12.701,63.783"/>
		<path style="fill:#C6BBAB;stroke:#FFFFFF;stroke-width:0.5;stroke-miterlimit:10;" d="M393.448,347.223h-52.254
			c-2.515,0-4.554-2.039-4.554-4.554v-7.703c0-2.515,2.039-4.554,4.554-4.554h52.254c2.515,0,4.554,2.039,4.554,4.554v7.703
			C398.002,345.184,395.963,347.223,393.448,347.223z"/>
		<path style="fill:#275389;" d="M408.002,371.478H326.64l8.478-20.563c0.921-2.234,3.099-3.693,5.516-3.693h53.374
			c2.417,0,4.595,1.458,5.516,3.693L408.002,371.478z"/>
		<circle style="fill:#173454;" cx="367.512" cy="183.775" r="23"/>
		<path style="fill:#275389;stroke:#FFFFFF;stroke-width:0.5;stroke-miterlimit:10;" d="M330.564,262.166l-9.497,9.138
			c-10.25,9.862-17.429,22.479-20.671,36.328l-14.947,63.846h7.404l27.206-57.301c2.733-5.757,8.463-9.496,14.833-9.679l0,0
			L330.564,262.166z"/>
		<path style="fill:none;stroke:#000000;stroke-width:0.75;stroke-miterlimit:10;" d="M310.17,307.094
			c0,0,7.195-19.404,22.769-21.702"/>
		<path style="fill:#275389;stroke:#FFFFFF;stroke-width:0.5;stroke-miterlimit:10;" d="M404.57,262.166l9.497,9.138
			c10.25,9.862,17.429,22.479,20.671,36.328l14.947,63.846h-7.404l-27.206-57.301c-2.733-5.757-8.463-9.496-14.833-9.679l0,0
			L404.57,262.166z"/>
		<path style="fill:none;stroke:#000000;stroke-width:0.75;stroke-miterlimit:10;" d="M424.964,307.094
			c0,0-7.195-19.404-22.769-21.702"/>
		<path style="fill:#C6BBAB;stroke:#FFFFFF;stroke-width:0.5;stroke-miterlimit:10;" d="M367.512,151.045
			c-18.076,0-32.73,14.654-32.73,32.73c0,18.076,14.654,32.73,32.73,32.73c18.076,0,32.73-14.654,32.73-32.73
			C400.242,165.699,385.589,151.045,367.512,151.045z M367.512,206.775c-12.703,0-23-10.297-23-23c0-12.702,10.297-23,23-23
			c12.703,0,23,10.298,23,23C390.512,196.478,380.215,206.775,367.512,206.775z"/>
		<path d="M368.215,155.629c0.224,0.388,0.091,0.884-0.297,1.109c-0.388,0.224-0.884,0.091-1.108-0.297
			c-0.224-0.388-0.091-0.884,0.297-1.109C367.495,155.108,367.991,155.241,368.215,155.629z"/>
		<path d="M368.215,211.11c0.224,0.388,0.091,0.884-0.297,1.108c-0.388,0.224-0.884,0.091-1.108-0.297
			c-0.224-0.388-0.091-0.884,0.297-1.108C367.495,210.589,367.991,210.721,368.215,211.11z"/>
		<path d="M358.546,157.086c0.343,0.288,0.388,0.8,0.1,1.143c-0.288,0.343-0.8,0.388-1.143,0.1c-0.343-0.288-0.388-0.8-0.1-1.143
			C357.691,156.843,358.203,156.798,358.546,157.086z"/>
		<path d="M377.522,209.221c0.343,0.288,0.388,0.8,0.1,1.143c-0.288,0.343-0.8,0.388-1.143,0.1s-0.388-0.8-0.1-1.143
			C376.667,208.977,377.178,208.933,377.522,209.221z"/>
		<path d="M349.959,161.762c0.421,0.153,0.638,0.619,0.485,1.04c-0.153,0.421-0.619,0.638-1.04,0.485
			c-0.421-0.153-0.638-0.619-0.485-1.04C349.072,161.826,349.538,161.609,349.959,161.762z"/>
		<path d="M385.621,204.263c0.421,0.153,0.638,0.619,0.485,1.04c-0.153,0.421-0.619,0.638-1.04,0.485
			c-0.421-0.153-0.638-0.619-0.485-1.04C384.734,204.327,385.2,204.11,385.621,204.263z"/>
		<path d="M343.489,169.094c0.448,0,0.811,0.363,0.811,0.812c0,0.448-0.363,0.811-0.811,0.811c-0.448,0-0.812-0.363-0.812-0.811
			C342.677,169.457,343.04,169.094,343.489,169.094z"/>
		<path d="M391.536,196.834c0.448,0,0.811,0.363,0.811,0.811c0,0.448-0.363,0.811-0.811,0.811c-0.448,0-0.811-0.363-0.811-0.811
			C390.725,197.197,391.088,196.834,391.536,196.834z"/>
		<path d="M339.916,178.196c0.421-0.153,0.887,0.064,1.04,0.485c0.153,0.421-0.064,0.887-0.485,1.04
			c-0.421,0.153-0.887-0.064-1.04-0.485C339.278,178.814,339.495,178.349,339.916,178.196z"/>
		<path d="M394.553,187.83c0.421-0.153,0.887,0.064,1.04,0.485c0.153,0.421-0.064,0.887-0.485,1.04
			c-0.421,0.153-0.887-0.064-1.04-0.485C393.915,188.449,394.132,187.983,394.553,187.83z"/>
		<path d="M339.672,187.971c0.343-0.288,0.855-0.243,1.143,0.1c0.288,0.343,0.243,0.855-0.1,1.143
			c-0.343,0.288-0.855,0.243-1.143-0.1C339.284,188.77,339.329,188.259,339.672,187.971z"/>
		<path d="M394.31,178.337c0.343-0.288,0.855-0.243,1.143,0.1c0.288,0.343,0.243,0.855-0.1,1.143
			c-0.343,0.288-0.855,0.243-1.143-0.1C393.921,179.136,393.966,178.625,394.31,178.337z"/>
		<path d="M342.786,197.24c0.224-0.388,0.72-0.521,1.108-0.297c0.388,0.224,0.521,0.72,0.297,1.108
			c-0.224,0.388-0.72,0.521-1.108,0.297C342.695,198.124,342.562,197.628,342.786,197.24z"/>
		<path d="M390.833,169.499c0.224-0.388,0.72-0.521,1.108-0.297c0.388,0.224,0.521,0.72,0.297,1.109
			c-0.224,0.388-0.72,0.521-1.108,0.297C390.742,170.384,390.609,169.887,390.833,169.499z"/>
		<path d="M348.882,204.885c0.078-0.441,0.499-0.736,0.94-0.658c0.441,0.078,0.736,0.499,0.658,0.94
			c-0.078,0.441-0.499,0.736-0.94,0.658C349.099,205.747,348.804,205.326,348.882,204.885z"/>
		<path d="M384.544,162.384c0.078-0.441,0.499-0.736,0.94-0.658c0.441,0.078,0.736,0.499,0.658,0.94
			c-0.078,0.441-0.499,0.736-0.94,0.658C384.761,163.246,384.466,162.825,384.544,162.384z"/>
		<path d="M357.225,209.983c-0.078-0.441,0.217-0.862,0.658-0.94c0.441-0.078,0.862,0.217,0.94,0.658
			c0.078,0.441-0.217,0.862-0.658,0.94C357.724,210.719,357.303,210.425,357.225,209.983z"/>
		<path d="M376.201,157.849c-0.078-0.441,0.217-0.862,0.658-0.94s0.862,0.217,0.94,0.658c0.078,0.441-0.217,0.862-0.658,0.94
			C376.7,158.585,376.279,158.29,376.201,157.849z"/>
		<path d="M383.733,139.806c-0.078-0.441,0.217-0.862,0.658-0.94c0.441-0.078,0.862,0.217,0.94,0.658
			c0.078,0.441-0.217,0.862-0.658,0.94C384.231,140.542,383.81,140.248,383.733,139.806z"/>
		<path d="M381.298,123.466c-0.078-0.441,0.217-0.862,0.658-0.94c0.441-0.078,0.862,0.217,0.94,0.658
			c0.078,0.441-0.217,0.862-0.658,0.94C381.797,124.202,381.376,123.907,381.298,123.466z"/>
		<path d="M377.013,106.332c-0.078-0.441,0.217-0.862,0.658-0.94c0.441-0.078,0.862,0.217,0.94,0.658
			c0.078,0.441-0.217,0.862-0.658,0.94C377.511,107.068,377.09,106.773,377.013,106.332z"/>
		<path d="M384.544,148.147c-0.078-0.441,0.217-0.862,0.658-0.94c0.441-0.078,0.862,0.217,0.94,0.658
			c0.078,0.441-0.217,0.862-0.658,0.94C385.043,148.883,384.622,148.588,384.544,148.147z"/>
		<path d="M356.414,219.685c-0.078-0.441,0.217-0.862,0.658-0.94c0.441-0.078,0.862,0.217,0.94,0.658
			c0.078,0.441-0.217,0.862-0.658,0.94C356.913,220.421,356.492,220.127,356.414,219.685z"/>
		<path d="M357.435,238.228c-0.078-0.441,0.217-0.862,0.658-0.94c0.441-0.078,0.862,0.217,0.94,0.658
			c0.078,0.441-0.217,0.862-0.658,0.94C357.934,238.964,357.513,238.669,357.435,238.228z"/>
		<path d="M356.938,228.77c-0.078-0.441,0.217-0.862,0.658-0.94c0.441-0.078,0.862,0.217,0.94,0.658
			c0.078,0.441-0.217,0.862-0.658,0.94C357.437,229.506,357.016,229.211,356.938,228.77z"/>
		<path d="M357.736,246.06c-0.078-0.441,0.217-0.862,0.658-0.94c0.441-0.078,0.862,0.217,0.94,0.658
			c0.078,0.441-0.217,0.862-0.658,0.94C358.235,246.796,357.814,246.502,357.736,246.06z"/>
		<path d="M358.757,264.603c-0.078-0.441,0.217-0.862,0.658-0.94c0.441-0.078,0.862,0.217,0.94,0.658
			c0.078,0.441-0.217,0.862-0.658,0.94C359.256,265.339,358.835,265.044,358.757,264.603z"/>
		<path d="M358.26,255.145c-0.078-0.441,0.217-0.862,0.658-0.94c0.441-0.078,0.862,0.217,0.94,0.658
			c0.078,0.441-0.217,0.862-0.658,0.94C358.759,255.881,358.338,255.586,358.26,255.145z"/>
		<path d="M359.101,272.424c-0.065-0.443,0.243-0.855,0.686-0.92c0.444-0.065,0.855,0.243,0.92,0.686
			c0.065,0.444-0.243,0.855-0.686,0.92C359.578,273.175,359.166,272.868,359.101,272.424z"/>
		<path d="M359.565,290.989c-0.064-0.444,0.243-0.855,0.686-0.92c0.443-0.065,0.855,0.243,0.92,0.686
			c0.064,0.443-0.243,0.855-0.686,0.92C360.041,291.74,359.63,291.432,359.565,290.989z"/>
		<path d="M359.353,281.52c-0.064-0.443,0.243-0.855,0.686-0.92c0.443-0.065,0.855,0.243,0.92,0.686
			c0.064,0.444-0.243,0.855-0.686,0.92C359.829,282.271,359.417,281.964,359.353,281.52z"/>
		<path d="M359.565,299.828c-0.064-0.444,0.243-0.855,0.686-0.92c0.443-0.065,0.855,0.243,0.92,0.686
			c0.064,0.443-0.243,0.855-0.686,0.92C360.041,300.579,359.63,300.272,359.565,299.828z"/>
		<path d="M360.029,318.393c-0.065-0.444,0.243-0.855,0.686-0.92c0.444-0.065,0.855,0.243,0.92,0.686
			c0.065,0.443-0.243,0.855-0.686,0.92C360.505,319.144,360.093,318.837,360.029,318.393z"/>
		<path d="M359.816,308.924c-0.065-0.444,0.243-0.855,0.686-0.92c0.443-0.065,0.855,0.243,0.92,0.686
			c0.065,0.443-0.243,0.855-0.686,0.92C360.293,309.675,359.881,309.368,359.816,308.924z"/>
		<path d="M382.921,131.605c-0.078-0.441,0.217-0.862,0.658-0.94c0.441-0.078,0.862,0.217,0.94,0.658
			c0.078,0.441-0.217,0.862-0.658,0.94C383.42,132.341,382.999,132.046,382.921,131.605z"/>
		<path d="M380.027,115.009c-0.078-0.441,0.217-0.862,0.658-0.94c0.441-0.078,0.862,0.217,0.94,0.658
			c0.078,0.441-0.217,0.862-0.658,0.94C380.526,115.745,380.105,115.451,380.027,115.009z"/>
		
			<line style="fill:none;stroke:#000000;stroke-width:0.75;stroke-miterlimit:10;" x1="353.799" y1="213.499" x2="357.213" y2="330.412"/>
	</g>
	<g>
		<g>
			
				<line style="fill:none;stroke:#000000;stroke-width:0.5;stroke-miterlimit:10;" x1="612.305" y1="447.684" x2="464.694" y2="447.684"/>
			
				<line style="fill:none;stroke:#000000;stroke-width:0.5;stroke-miterlimit:10;" x1="641.356" y1="450.204" x2="591.155" y2="450.204"/>
		</g>
		<g>
			<radialGradient id="SVGID_1_" cx="463.0672" cy="423.4195" r="27.8166" gradientUnits="userSpaceOnUse">
				<stop  offset="0.3447" style="stop-color:#FFF9E9"/>
				<stop  offset="1" style="stop-color:#EDE6D6"/>
			</radialGradient>
			<polygon style="fill:url(#SVGID_1_);" points="457.505,461.667 453.867,461.667 464.994,385.172 472.267,385.172 			"/>
			<path style="fill:#F4DBB8;" d="M453.867,393.967c0-6.702,3.279-12.838,16.119-12.622c12.837,0.212,43.679-0.006,50.952-0.006
				c7.276,0,11.342-22.248,16.264-44.287c4.921-22.039,25.239-19.036,30.598-1.497c5.164,16.903-1.421,35.4-5.683,45.146v6.564
				c0,0-37.535-0.145-45.884-0.145c-9.701,0-8.461,6.847-8.461,6.847H453.867z"/>
			<path style="fill:#F4DBB8;" d="M457.431,393.967c0,0-0.712-8.795,7.563-8.795c8.272,0,52.237,0,52.237,0l-0.857,2.093
				c0,0-9.136-0.882-8.602,6.702H457.431z"/>
			<polygon style="fill:#F4DBB8;" points="539.797,467.42 543.435,467.42 532.309,385.172 525.033,385.172 			"/>
			<polygon style="fill:#F4DBB8;" points="487.034,464.42 483.395,464.42 494.52,385.172 501.797,385.172 			"/>
			<polygon style="fill:#F4DBB8;" points="569.324,467.42 572.964,467.42 561.837,385.172 554.562,385.172 			"/>
			<rect x="464.994" y="384.204" style="fill:#F4DBB8;" width="97.123" height="3.06"/>
		</g>
		<g>
			<path style="fill:#FFFFFF;" d="M469.397,435.923l-1.023,17.237h-1.033c0,0-10.592-0.527-10.842-0.632
				c-0.25-0.102,1.055-4.751,1.055-4.751l0.305-14.543L469.397,435.923z"/>
			<path style="fill:#0A1D35;" d="M469.568,452.052c-0.479,1.769,0.255,7.691,0.444,10.661c0.089,1.346-0.546,1.827-1.535,2.221
				c-0.962,0.381-4.114,0.633-5.823,0.294c-0.689-0.133-0.969-0.857-1.044-0.945c-0.872-1.016-2.502-1.127-4.491-0.645
				c-6.702,2.433-25.761-0.261-25.741-4.752c0.005-0.829-0.204-2.14,0.902-2.673c1.594-0.764,21.336-1.198,22.969-10.164
				c0.322-1.771,0.953,0.804,5.053,4.67C463.297,453.543,467.184,452.697,469.568,452.052z"/>
			<g>
				<path style="fill:#FFFFFF;stroke:#FFFFFF;stroke-linecap:round;stroke-linejoin:round;stroke-miterlimit:10;" d="
					M459.158,461.86c-3.246-0.141-12.175,2.436-23.056,0.275c-2.685-0.533-4.438-2.449-4.725-3.25l0,0
					c-0.02,4.491,8.742,7.471,22.578,5.613c2.379-0.326,5.164-1.106,4.983,0.398c3.284,0.972,10.063,0.31,11.025-0.071
					c0.067-0.564,0.1-1.115,0.049-2.113c-0.01-0.201-0.023-0.404-0.034-0.616l-0.045-0.979
					C469.964,461.8,467.559,462.553,459.158,461.86z"/>
			</g>
			<path style="fill:none;stroke:#FFFFFF;stroke-width:0.5;stroke-linecap:round;stroke-miterlimit:10;" d="M446.921,453.28
				c0,0,1.387,0.433,2.429,1.801"/>
			<path style="fill:none;stroke:#FFFFFF;stroke-width:0.5;stroke-linecap:round;stroke-miterlimit:10;" d="M449.467,452.251
				c0,0,1.149,0.129,2.778,1.459"/>
			<path style="fill:#FFFFFF;" d="M491.059,438.011l0.811,16.023l-1.012,0.053c0,0-10.38,0.026-10.629-0.061
				c-0.25-0.087,0.787-4.7,0.787-4.7l-0.826-12.989L491.059,438.011z"/>
			<path style="fill:#0A1D35;" d="M492.979,452.887c-0.376,1.757,0.646,7.508,0.98,10.402c0.158,1.312-0.438,1.814-1.386,2.249
				c-0.921,0.423-3.99,0.829-5.679,0.586c-0.679-0.093-0.989-0.789-1.067-0.87c-0.903-0.948-2.503-0.975-4.423-0.399
				c-6.428,2.722-25.197,1.066-25.407-3.328c-0.038-0.808-0.31-2.08,0.747-2.659c1.516-0.826,20.793-2.264,21.928-11.11
				c0.226-1.748,0.975,0.735,5.18,4.305C486.924,454.666,490.682,453.644,492.979,452.887z"/>
			<g>
				<path style="fill:#FFFFFF;stroke:#FFFFFF;stroke-linecap:round;stroke-linejoin:round;stroke-miterlimit:10;" d="
					M483.306,463.012c-4.016,0.034-11.506,3.043-22.525,1.452c-2.65-0.385-4.462-2.167-4.783-2.938l0,0
					c0.21,4.395,8.929,6.858,22.358,4.332c2.309-0.441,4.992-1.348,4.893,0.133c3.262,0.782,9.851-0.211,10.772-0.636
					c0.037-0.554,0.041-1.093-0.062-2.066c-0.02-0.196-0.043-0.396-0.065-0.6l-0.093-0.955
					C493.867,462.398,491.556,463.257,483.306,463.012z"/>
			</g>
			<path style="fill:none;stroke:#FFFFFF;stroke-width:0.5;stroke-linecap:round;stroke-miterlimit:10;" d="M470.901,455.253
				c0,0,1.381,0.352,2.47,1.636"/>
			<path style="fill:none;stroke:#FFFFFF;stroke-width:0.5;stroke-linecap:round;stroke-miterlimit:10;" d="M473.34,454.116
				c0,0,1.131,0.065,2.79,1.283"/>
			<path style="fill:#173454;" d="M454.908,441.073c0,0,0.063-66.698,5.064-72.382c5.004-5.685,67.281-12.673,67.281-12.673
				l17.329,2.616l-4.844,23.171c0,0-58.142,2.4-63.47,5.46c0,7.205-4.193,50.003-4.912,56.939L454.908,441.073z"/>
			<path style="fill:#173454;" d="M510.42,356.018c0,0-31.224,6.192-38.152,13.494c-3.613,3.806,2.02,61.745,3.862,72.708
				l17.003,2.994c0.5-38.138-1.641-53.273,1.484-57.662c5.813-8.16,34.689-5.746,34.689-5.746l10.017-21.429L510.42,356.018z"/>
			<path style="fill:#FFFFFF;" d="M506.15,356.36c0.201-6.977,14.558-25.664-0.592-50.516c1.807-17.305,11.047-23.516,20.969-22.977
				c3.273,0.176,8.34,0.602,11.666,1.892c5.859,2.275,9.692,6.379,12.938,10.168c12.61,14.723-7.696,50.126-6.032,86.565
				c0,0-8.433,0.799-24.161-0.154C520.103,367.983,513.635,355.364,506.15,356.36z"/>
			<path style="fill:#FFAF99;" d="M538.879,263.117c-0.739,7.047-0.056,21.181,1.181,22.547c1.827,0.787,3.281,1.708,4.124,2.475
				c0,0-10.894,6.297-17.699,5.931c-6.808-0.367-9.185-8.135-8.941-9.495l0.953-0.475l2.665-0.815c0,0,0.839-3.605,0.982-6.82
				c0.216-4.813,3.116-13.866,3.116-13.866L538.879,263.117z"/>
			<path style="fill:#E5897A;" d="M522.128,276.834c2.575,0.14,11.21-5.892,11.794-7.512c0.582-1.619,1.617-3.371,1.617-3.371
				s0.227,7.639-3.891,11.237c-5.581,4.88-9.473,0.555-9.473,0.555S522.017,277.887,522.128,276.834z"/>
			<path style="fill:#FFAF99;" d="M543,255.126c-0.868,7.996-8.052,13.772-16.048,12.903c-7.996-0.869-13.887-8.848-13.018-16.842
				c0.185-1.726,0.355-4.538,1.071-6.011c4.366-8.941,18.894-9.934,25.935-1.074C543.395,247.193,543.389,251.528,543,255.126z"/>
			<path style="fill:#FFAF99;" d="M513.996,254.492c-0.378,7.679,2.438,20.841,9.136,22.724c3.144,0.885,11.44-3.805,12.42-9.097
				c0.98-5.288,2.018-11.065,2.018-11.065"/>
			<path style="fill:#0A1D35;" d="M515.013,261.081c0.068,1.064,0.771,1.887,1.564,1.837c0.794-0.052,1.379-0.96,1.308-2.027
				c-0.07-1.069-0.768-1.891-1.56-1.84C515.532,259.103,514.944,260.011,515.013,261.081z"/>
			<path style="fill:#0A1D35;" d="M525.399,260.52c-0.002,1.067,0.649,1.935,1.443,1.934c0.795-0.003,1.436-0.872,1.434-1.941
				c-0.002-1.073-0.646-1.936-1.442-1.935C526.04,258.58,525.397,259.448,525.399,260.52z"/>
			<path style="fill:#E5897A;" d="M518.244,267.101c0.258,0.139,1.664,0.71,2.126,0.645c0.467-0.057,2.443-0.736,2.555-0.964
				C523.042,266.553,517.752,266.836,518.244,267.101z"/>
			<path style="fill:#E5897A;" d="M518.967,270.626c0.299,0.748,2.198,1.86,2.661,1.798c0.466-0.06,3.939-1.764,4.052-1.992
				C525.797,270.204,521.755,270.987,518.967,270.626z"/>
			<g>
				<path style="fill:#0E263F;" d="M524.577,255.671c0.355-0.512,0.812-0.81,1.351-1.018c0.535-0.197,1.14-0.248,1.714-0.145
					c0.571,0.099,1.126,0.313,1.569,0.642c0.456,0.315,0.805,0.729,1.077,1.169c0.149,0.242,0.074,0.559-0.168,0.708
					c-0.148,0.091-0.323,0.099-0.472,0.036l-0.053-0.023c-0.416-0.18-0.786-0.358-1.152-0.475c-0.358-0.142-0.709-0.19-1.048-0.24
					c-0.343-0.038-0.679-0.012-1.042,0.013c-0.358,0.017-0.762,0.103-1.165,0.122l-0.169,0.008c-0.281,0.014-0.52-0.203-0.533-0.484
					C524.482,255.869,524.516,255.76,524.577,255.671z"/>
			</g>
			<g>
				<path style="fill:#0E263F;" d="M517.339,257.022c0.023,0.078-0.178,0.025-0.309,0.056c-0.144,0.012-0.295,0.015-0.443,0.038
					c-0.295,0.048-0.578,0.108-0.835,0.191c-0.254,0.093-0.485,0.188-0.694,0.32c-0.22,0.121-0.407,0.291-0.652,0.497l-0.077,0.064
					c-0.218,0.182-0.542,0.153-0.724-0.065c-0.096-0.115-0.133-0.262-0.115-0.4c0.061-0.444,0.293-0.871,0.62-1.221
					c0.341-0.333,0.769-0.558,1.2-0.673c0.43-0.124,0.869-0.155,1.291-0.102c0.211,0.029,0.42,0.054,0.63,0.126
					c0.221,0.088,0.382,0.108,0.713,0.373c0.22,0.167,0.263,0.481,0.096,0.701C517.873,257.146,517.559,257.189,517.339,257.022z"/>
			</g>
			<path style="fill:#0A1D35;" d="M536.208,251.62c-1.598,6.765-0.78,6.78-0.993,8.863c-0.31,1.117,1.977,0.33,2.111-0.535
				c0.131-0.866,0.945-3.178,2.375-3.406c1.578-0.253,1.66,1.226,1.182,2.342c0.332-0.776,1.055,0.936,1.57,0.162
				c0.669-1.004,1.65-4.424,1.738-5.609c0.108-1.448-0.466-4.233-1.071-5.983l-4.041,0.602L536.208,251.62z"/>
			<path style="fill:#0A1D35;" d="M513.83,243.341c-0.854,2.397,0.218,6.713,0.218,6.713c-0.224-3.752,5.621-4.629,8.22-4.914
				c5.964-0.653,11.518,0.636,12.697,3.374c0.424,0.982-0.694,11.079,0.252,12.36l5.866-9.005l1.695,7.005
				c0,0,8.584-16.784-9.595-20.588C521.61,235.864,516.294,239.749,513.83,243.341z"/>
			<path style="fill:#0A1D35;" d="M513.516,245.155c0.119-5.499,6.775-10.782,14.342-10.516c8.374,0.293,14.97,3.865,14.652,10.468
				l-10.265-0.646L513.516,245.155z"/>
			<path style="fill:#E5897A;" d="M542.681,261.251c-0.622,2.539-2.979,5.625-4.785,4.422c-1.454-0.971,0.125-8.649,2.219-8.839
				C542.369,256.632,543.306,258.712,542.681,261.251z"/>
			<path style="fill:#173454;" d="M516.145,285.259c0,0-2.278,9.284,0.606,25.392c2.871,16.035-9.562,50.295-14.48,51.936
				c0,0,5.831-18.224,6.56-24.784c0.729-6.56-3.272-31.958-3.272-31.958S503.596,291.938,516.145,285.259z"/>
			<path style="fill:#173454;" d="M543,286.472c-8.766,19.248-35.679,52.748-35.679,52.748l-41.129,16.931l2.967,5.195l37.914-3.845
				l41.31-38.782L543,286.472z"/>
			<path style="fill:#173454;" d="M512.506,287.708c-12.76,6.377-12.76,43.874-12.76,43.874l-34.751,24.569l2.967,5.195
				l41.01-14.268l4.585-30.327L512.506,287.708z"/>
			<polygon style="fill:#FFFFFF;" points="488.061,359.199 477.724,331.582 434.844,339.762 446.296,370.358 507.321,358.802 
				507.073,357.502 			"/>
			
				<radialGradient id="SVGID_00000096743893932630974040000010311666187241546172_" cx="498.3352" cy="295.084" r="14.3295" gradientTransform="matrix(0.9823 -0.1874 0.1874 0.9823 -52.5527 148.7688)" gradientUnits="userSpaceOnUse">
				<stop  offset="0.3447" style="stop-color:#FFF9E9"/>
				<stop  offset="1" style="stop-color:#EDE6D6"/>
			</radialGradient>
			<polygon style="fill:url(#SVGID_00000096743893932630974040000010311666187241546172_);" points="477.201,331.682 
				487.54,362.575 507.321,358.802 507.073,357.502 488.061,359.199 477.724,331.582 			"/>
			<path style="fill:#EDEDED;" d="M463.166,352.299c1.029,3.105,0.05,5.969-2.187,6.396s-4.886-1.745-5.915-4.851
				c-1.029-3.105-0.05-5.97,2.187-6.396S462.136,349.194,463.166,352.299z"/>
			<path style="fill:#C1C1C1;" d="M516.145,285.259l0.606,13.628l5.893-4.803c0,0,4.405,7.802,4.655,7.636
				c0.25-0.166,5.487-5.426,5.487-5.426l-10.24-2.804L516.145,285.259z"/>
			<polygon style="fill:#FFFFFF;" points="516.145,285.259 521.846,280.785 522.905,293.061 539.597,281.678 544.183,288.139 
				527.749,299.9 522.644,294.084 517.526,297.22 			"/>
			<path style="fill:#173454;" d="M543,286.472c0,0-17.277,9.237-15.251,30.922c1.679,17.963-10.997,47.428-10.997,47.428
				s1.987,11.502,0.995,16.984l35.549-0.467c0,0,1.125-11.947-1.077-25.372c-2.204-13.425,4.545-30.806,4.452-35.629
				C556.577,315.516,559.401,298.216,543,286.472z"/>
		</g>
	</g>
	<g>
		<g>
			
				<line style="fill:none;stroke:#000000;stroke-width:0.5;stroke-miterlimit:10;" x1="235.262" y1="446.621" x2="104.283" y2="446.621"/>
			
				<line style="fill:none;stroke:#000000;stroke-width:0.5;stroke-miterlimit:10;" x1="158.155" y1="450.277" x2="89.857" y2="450.277"/>
		</g>
		<g>
			<path style="fill:#FFAF99;" d="M142.526,285.567c4.184,4.414,2.418,9.609,2.627,13.219c0.142,2.457,1.276,5.302-0.715,4.33
				c-3.569-1.745-2.451-7.803-2.451-7.803s-1.261,0.479-1.59,2.017c-0.573,2.663,2.148,8.509,2.286,11.218
				c0.143,2.888-5.534-0.053-7.579-3.43c-3.825-5.797-2.991-15.324-2.904-16.202c0.19-1.9,0.636-7.29,0.636-7.29l11.197-5.937
				C144.032,275.69,141.874,284.832,142.526,285.567z"/>
			<path style="fill:#E88379;" d="M143.099,286.231c0,0-4.692,3.361-10.702,0.532l0.246-2.954c0,0,5.132,2.311,9.763,0.939
				L143.099,286.231z"/>
			<path style="fill:#FFAF99;" d="M284.125,194.501c0,0,19.04-18.618,20.495-19.314c1.452-0.689,0.742,2.56-1.283,4.176
				c0,0-3.727,4.868-4.747,5.592c-1.022,0.723,5.83,5.779,2.78,9.877c-1.561,1.606-3.502,2.639-4.936,3.5
				c-1.432,0.859-5.731,3.438-5.731,3.438L284.125,194.501z"/>
			<path style="fill:#FFFFFF;" d="M208.436,431.47c0,0-0.447,1.907,1.063,8.106c1.512,6.198-15.592,7.4-16.133,3.244
				c-0.573-4.388,0.665-11.395,0.524-12.987C193.758,428.316,208.436,431.47,208.436,431.47z"/>
			<path style="fill:#FFFFFF;" d="M145.202,430.42c0,0-2.67,3.737-2.385,8.403c0.288,4.664-11.445,1.533-11.636,0
				c-0.188-1.536,0.381-7.261,2.29-11.933C135.381,422.217,145.202,430.42,145.202,430.42z"/>
			<path style="fill:#0A1D35;" d="M144.172,438.502c0.17,5.842,5.901,8.64,5.678,13.107c-0.041,0.86-0.009,2.611-0.51,3.302
				c-1.504,2.059-5.087,2.313-8.036,2.306c-4.245-0.009-8.611-0.318-11.882-1.608c-5.473-2.155,0.06-12.432,0.362-17.324
				C130.039,434.164,144.001,432.656,144.172,438.502z"/>
			<path style="fill:#0A1D35;" d="M189.364,313.233c-3.534,15.316-16.658,52.02-20.712,58.528
				c-3.152,5.058-15.306,40.368-20.399,52.788c-0.249,0.602,0.094,2.294-0.165,2.812c-1.254,2.517-2.122,4.228-2.408,4.775
				c-1.769,3.386-14.596-0.95-13.987-4.794c0.086-0.537,0.795-2.826,1.336-4.77c0.161-0.579,1.23-1.326,1.424-2.007
				c3.786-13.357,8.282-46.646,16.589-57.53c8.009-41.643,6.98-63.905,12.457-82.989c0,0,1.941,0.62,8.404,2.028
				c17.644,3.851,33.789,1.305,35.522,1.13c2.325-0.235,4.727-0.533,7.196-0.904c3.645,32.515,3.345,64.761,2.601,78.932
				c-0.34,6.418-4.633,42.119-7.369,60.821c-0.101,0.69,0.859,1.269,0.766,1.921c-0.385,2.694-0.577,6.277-0.796,8.11
				c-0.155,3.179-16.898,2.435-16.455-0.331c0.361-2.264-0.463-4.793-0.21-7.095c0.054-0.51,1.439-2.099,1.489-2.605
				c1.941-19.18-1.479-41.512,0.759-56.878L189.364,313.233z"/>
			<path style="fill:#0A1D35;" d="M192.343,440c-0.047,0.77-0.085,1.705-0.05,2.334c0.047,0.862-0.426,6.595-0.575,10.064
				c-0.068,1.575,0.187,2.388,2.054,2.601c5.612,0.64,20.839,1.093,24.363,1.093c4.29,0,8.368-0.29,9.19-1.966
				c0.597-1.209,1.136-3.379-0.054-5.123c-1.27-1.86-4.426-3.295-8.79-4.642c-4.235-1.311-3.759-2.357-5.352-5.717
				c-0.844-1.779-4.186-1.677-9.173-1.182c-1.221,0.122-2.15,4.187-4.581,4.402c-3.217,0.284-5.233-1.245-6.213-2.297
				C192.673,439.044,192.388,439.243,192.343,440z"/>
			<polygon style="fill:#0A1D35;" points="202.315,184.836 196.007,183.279 190.267,176.889 185.474,183.867 172.277,186.891 
				174.648,292.298 204.253,292.771 208.827,195.65 			"/>
			<path style="fill:#F4DBB8;" d="M186.016,182.714c-2.446,0.801-17.602,4.364-20.785,7.26
				c-3.938,3.582-25.481,41.823-25.481,41.823s-6.381,30.23-8.416,41.388c-0.115,0.627,1.108,2.307,1.002,2.885
				c-0.585,3.19-1.025,5.537-1.186,6.263c-0.702,3.187,10.59,4.881,11.7,1.87c0.265-0.72,0.87-3.385,1.635-7.022
				c0.17-0.808,1.841-1.033,2.025-1.926c2.449-11.876,7.765-37.489,7.765-37.489l10.942-16.256l-4.178,49.145l1.959,1.591
				c0,0-0.813,7.532,0,9.596c0.726,1.844,13.749,4.894,26.952,4.929c13.566,0.035,22.819-1.89,24.769-3.555
				c2.131-1.819,1.034-9.777,1.034-9.777l1.934-4.577l0.852-51.83c0,0,20.061,17.412,25.035,19.6
				c4.26,0.536,29.969-18.529,43.072-28.297c0.515-0.541,0.81-2.326,1.265-2.804c1.939-2.034,3.295-3.468,3.783-3.985
				c2.887-3.046-4.164-10.827-7.889-7.676c-0.634,0.535-2.071,1.857-4.033,3.68c-0.591,0.548-2.894,0.476-3.571,1.107
				c-12.156,7.639-24.832,17.016-28.886,18.244c-1.393-1.99-26.39-24.643-29.675-26.642c-3.286-2-19.243-7.548-19.243-7.548H186.016
				z"/>
			<path style="fill:#C1C1C1;" d="M217.689,268.863c-5.515,3.285-26.407,2.986-26.407,2.986l-0.73-2.986l-0.601,2.993h-1.454
				l-0.499-1.497l-1.889,1.497c0,0-10.745-0.008-16.316-0.704l-1.194-2.289l-0.994,2.091l-6.566-0.299l1.959,1.591
				c0,0,9.278,3.085,25.697,3.084c18.901-0.001,27.059-1.89,27.059-1.89L217.689,268.863z"/>
			<path style="fill:#C1C1C1;" d="M276.549,198.446c0,0,4.268,3.376,7.821,7.795l-1.776,2.273l2.32-1.597l0.441,0.406l-0.644,0.824
				l1.136-0.564l0.946,0.551l0.601-1.488c0,0-0.782-5.537-7.867-8.937L276.549,198.446z"/>
			<path style="fill:#C1C1C1;" d="M131.334,273.184c3.166,1.336,8.987,2.005,8.987,2.005s1.71-2.605,1.634-2.346
				c-0.074,0.258-0.632,2.381-0.632,2.381l1.06-0.013l0.733-1.004l0.223,0.981c0,0,1.658,0.691,2.994,0.43l-1.733,1.311
				c0,0-7.005,3.031-12.262-0.86L131.334,273.184z"/>
			<polygon style="fill:#C1C1C1;" points="165.218,221.51 166.909,214.645 154.276,237.766 			"/>
			<polygon style="fill:#C1C1C1;" points="238.505,233.251 214.234,209.273 216.487,218.227 218.186,238.669 218.541,217.033 
				230.967,227.46 			"/>
			<g>
				
					<path style="fill:#FFFFFF;stroke:#FFFFFF;stroke-width:0.5;stroke-linecap:round;stroke-linejoin:round;stroke-miterlimit:10;" d="
					M197.45,451.663c0,0,0.548-3.979,5.025-3.979c4.476,0,5.271,3.88,5.271,3.88s4.527,0.248,9.103,0.397
					c4.231,0.137,11.199-0.483,10.914-1.906c0.47,1.496,0.042,3.094-0.439,4.07c-0.822,1.676-4.9,1.966-9.19,1.966
					c-3.524,0-18.75-0.452-24.363-1.093c-1.867-0.214-2.122-1.026-2.054-2.601c0.031-0.702,0.073-1.497,0.123-2.325
					C191.749,451.556,197.45,451.663,197.45,451.663z"/>
			</g>
			<g>
				
					<path style="fill:#FFFFFF;stroke:#FFFFFF;stroke-width:0.5;stroke-linecap:round;stroke-linejoin:round;stroke-miterlimit:10;" d="
					M137.063,451.664c4.927,0.514,12.751-0.051,12.576-1.778c0.157,0.553,0.242,1.122,0.211,1.723
					c-0.041,0.86-0.009,2.611-0.51,3.302c-1.504,2.059-5.087,2.313-8.036,2.306c-4.245-0.009-8.611-0.318-11.882-1.608
					c-2.674-1.053-2.715-4.049-2.028-7.406C127.224,449.195,132.304,451.168,137.063,451.664z"/>
			</g>
			<path style="fill:#C1C1C1;" d="M209.96,186.937c-1.366,7.91-6.653,15.112-17.582,14.377
				c-10.347-0.697-15.685-9.531-15.304-16.157l3.891-1.044l23.053,0.686L209.96,186.937z"/>
			<path style="fill:#FFAF99;" d="M187.044,162.978c0.826,7.31-0.376,18.793-1.668,19.928l-5.404,1.479
				c-0.219,16.332,24.939,19.417,27.526,1.51l-6.177-2.209c0,0,0.272-4.208,0.096-7.543c-0.263-4.989-0.24-13.817-0.24-13.817
				L187.044,162.978z"/>
			<path style="fill:#E88379;" d="M201.488,178.541c-2.66-0.273-10.526-7.866-10.858-9.619c-0.337-1.753-1.535-3.818-1.535-3.818
				s-1.056,7.89,2.582,12.252c4.922,5.908,9.616,2.111,9.616,2.111S201.468,179.715,201.488,178.541z"/>
			<path style="fill:#FFAF99;" d="M183.639,152.893c-0.409,8.335,6.007,15.427,14.344,15.838
				c8.335,0.415,15.675-6.801,16.085-15.136c0.091-1.795,0.378-4.706-0.118-6.334c-3.018-9.874-17.742-13.262-26.399-5.328
				C184.53,144.698,183.832,149.141,183.639,152.893z"/>
			<path style="fill:#FFAF99;" d="M213.468,156.972c-0.867,7.932-5.895,20.958-13.069,21.797
				c-3.367,0.392-11.102-5.765-11.246-11.347c-0.141-5.579-0.263-11.67-0.263-11.67"/>
			<path style="fill:#0A1D35;" d="M211.417,163.212c-0.245,1.078-1.098,1.812-1.905,1.628c-0.803-0.182-1.256-1.205-1.01-2.291
				c0.245-1.083,1.096-1.812,1.901-1.63C211.207,161.102,211.662,162.127,211.417,163.212z"/>
			<path style="fill:#0A1D35;" d="M200.715,161.122c-0.178,1.091-0.986,1.874-1.797,1.743c-0.818-0.132-1.329-1.126-1.153-2.221
				c0.178-1.099,0.978-1.878,1.794-1.747C200.368,159.027,200.887,160.02,200.715,161.122z"/>
			<path style="fill:#E88379;" d="M206.98,168.611c-0.29,0.1-1.824,0.455-2.285,0.314c-0.469-0.135-2.38-1.153-2.462-1.406
				C202.15,167.269,207.527,168.421,206.98,168.611z"/>
			<g>
				<path style="fill:#0E263F;" d="M201.274,157.093c-0.376-0.207-0.781-0.419-1.186-0.542c-0.403-0.135-0.809-0.229-1.226-0.248
					c-0.416-0.011-0.837,0.038-1.259,0.154c-0.423,0.109-0.834,0.293-1.265,0.477l-0.019,0.008
					c-0.137,0.059-0.297-0.005-0.356-0.142c-0.047-0.109-0.016-0.232,0.068-0.308c0.374-0.338,0.798-0.644,1.287-0.843
					c0.476-0.235,1.026-0.308,1.566-0.322c0.545-0.013,1.093,0.124,1.572,0.363c0.479,0.253,0.894,0.574,1.209,1.034
					c0.084,0.123,0.053,0.292-0.071,0.376c-0.087,0.059-0.196,0.061-0.283,0.014L201.274,157.093z"/>
			</g>
			<g>
				<path style="fill:#0E263F;" d="M209.342,158.13c0.301-0.161,0.479-0.161,0.699-0.195c0.211-0.026,0.417-0.014,0.625-0.001
					c0.416,0.025,0.822,0.148,1.214,0.321c0.396,0.169,0.748,0.456,1.034,0.799c0.264,0.364,0.43,0.788,0.464,1.212
					c0.014,0.179-0.12,0.336-0.299,0.35c-0.127,0.01-0.243-0.055-0.305-0.157l-0.019-0.032c-0.175-0.292-0.339-0.548-0.557-0.757
					c-0.203-0.224-0.473-0.373-0.745-0.529c-0.28-0.15-0.597-0.238-0.918-0.324c-0.161-0.039-0.327-0.064-0.489-0.085
					c-0.151-0.032-0.355-0.016-0.401-0.036l-0.285-0.125c-0.125-0.055-0.181-0.2-0.127-0.324
					C209.256,158.196,209.295,158.156,209.342,158.13z"/>
			</g>
			<path style="fill:#FFFFFF;" d="M206.327,172.144c-0.139-0.471-6.568-1.428-7.051-1.253c-0.48,0.173,1.681,2.719,3.124,2.993
				C203.515,174.095,206.501,172.702,206.327,172.144z"/>
			<path style="fill:#0A1D35;" d="M215.223,154.359c-0.578,0.139-1.217-0.06-2.798-0.276c-0.446-0.061,0.014-3.777-0.482-3.861
				c-0.258-0.044-1.452,3.554-1.719,3.505c-0.337-0.063-0.15-1.608-0.5-1.678c-0.42-0.085-1.118,0.836-1.554,0.74
				c-3.668-0.812-8.953-2.049-10.453-3.489c-0.23-0.222,0.649-5.671,0.385-5.807c-0.506-0.259-2.302,6.037-2.675,5.741
				c-1.01-0.806-2.656,0.293-3.46,4.798c-0.706,3.966-1.438,7-1.438,7l-1.26-0.211c0,0-0.299-6.092-2.573-6.381
				c-2.621-0.335-2.768,3.266-2.768,3.266l1.299,3.984c0,0-2.248-4.442-2.582-9.841c-0.504-8.117,0.11-15.265,10.23-17.441
				c4.651-1.001,11.069-0.508,16.201,2.246c3.974,2.133,5.97,4.396,7.077,8.386C217.271,149.076,215.223,154.359,215.223,154.359z"
				/>
			<path style="fill:#E88379;" d="M182.968,159.222c0.225,2.705,2.134,6.249,4.183,5.313c1.648-0.757,1.282-8.883-0.833-9.419
				C184.041,154.539,182.743,156.516,182.968,159.222z"/>
			<path style="fill:#0A1D35;" d="M195.959,137.827c-1.844,0.781-2.733-0.084-4.019-1.408c-1.135-1.168-2.094-2.301-3.528-3.12
				c-1.952-1.111-4.526-1.977-6.746-2.24c-6.273-0.745-12.013,2.789-15.057,7.775c-3.52,5.772-4.998,12.747-1.97,20.911
				c1.573,4.242,5.828,9.21,7.371,9.68c0.69,0.21,1.476-0.068,0.502-1.61c-0.974-1.542-2.609-4.225-1.112-6.035
				c1.766-2.137,5.183-2.501,7.329-4.251c5.369-4.381,0.234-10.678,2.912-16.075c0.942-1.896,2.954-3.724,5.16-3.833
				c3.134-0.152,5.459,2.977,5.435,5.943"/>
		</g>
	</g>
	<g>
		<path style="fill:#FFFFFF;" d="M511.42,212.156h-61.705c-3.372,0-6.106-2.734-6.106-6.106v-36.537
			c0-3.372,2.734-6.106,6.106-6.106h61.705c3.372,0,6.106,2.734,6.106,6.106v36.537C517.526,209.422,514.792,212.156,511.42,212.156
			z"/>
		<path style="fill:#FFFFFF;" d="M520.741,222.915c0,2.538-2.058,4.596-4.596,4.596c-2.538,0-4.596-2.058-4.596-4.596
			c0-2.538,2.058-4.596,4.596-4.596C518.683,218.319,520.741,220.377,520.741,222.915z"/>
		<circle style="fill:#FFFFFF;" cx="509.724" cy="233.894" r="1.826"/>
		<g>
			<g>
				<polyline style="fill:none;stroke:#0A1D35;stroke-miterlimit:10;" points="503.241,203.255 490.134,192.191 485.879,195.596 
					459.993,174.327 				"/>
				<g>
					<polygon style="fill:#0A1D35;" points="465.15,173.27 465.212,174.269 460.29,174.57 460.95,179.457 459.958,179.589 
						459.156,173.638 					"/>
				</g>
			</g>
		</g>
	</g>
</g>
</svg>
